<svg xmlns="http://www.w3.org/2000/svg" width="22" height="22" viewBox="0 0 22 22" fill="none">
  <path d="M18.6077 15.202V7.01125C18.6071 6.89294 18.5753 6.77688 18.5155 6.67479C18.4557 6.5727 18.37 6.48818 18.2671 6.42975L10.9569 2.31777C10.8584 2.2609 10.7467 2.23096 10.633 2.23096C10.5192 2.23096 10.4075 2.2609 10.309 2.31777L2.99879 6.42975C2.89591 6.48818 2.81025 6.5727 2.75046 6.67479C2.69066 6.77688 2.65884 6.89294 2.6582 7.01125V15.202C2.65884 15.3203 2.69066 15.4364 2.75046 15.5385C2.81025 15.6405 2.89591 15.7251 2.99879 15.7835L10.309 19.8955C10.4075 19.9524 10.5192 19.9823 10.633 19.9823C10.7467 19.9823 10.8584 19.9524 10.9569 19.8955L18.2671 15.7835C18.37 15.7251 18.4557 15.6405 18.5155 15.5385C18.5753 15.4364 18.6071 15.3203 18.6077 15.202V15.202Z" stroke="black" stroke-width="1.32913" stroke-linecap="round" stroke-linejoin="round"/>
  <path d="M18.5168 6.67065L10.7082 11.1066L2.75 6.67065" stroke="black" stroke-width="1.32913" stroke-linecap="round" stroke-linejoin="round"/>
  <path d="M10.7076 11.1067L10.6328 19.9786" stroke="black" stroke-width="1.32913" stroke-linecap="round" stroke-linejoin="round"/>
  <path d="M14.7034 4.41943L10.633 6.71218L6.5625 4.41943" stroke="black" stroke-width="1.32913" stroke-linecap="round" stroke-linejoin="round"/>
  <path d="M14.6206 17.8353V13.2582L18.608 11.0153" stroke="black" stroke-width="1.32913" stroke-linecap="round" stroke-linejoin="round"/>
  <path d="M6.64559 17.8353V13.2582L2.6582 11.0153" stroke="black" stroke-width="1.32913" stroke-linecap="round" stroke-linejoin="round"/>
</svg>