<svg xmlns="http://www.w3.org/2000/svg" width="22" height="22" viewBox="0 0 22 22" fill="none">
  <path d="M19.0985 15.4546V7.26381C19.0978 7.1455 19.066 7.02945 19.0062 6.92735C18.9464 6.82526 18.8608 6.74074 18.7579 6.68232L11.4477 2.57033C11.3492 2.51346 11.2374 2.48352 11.1237 2.48352C11.01 2.48352 10.8982 2.51346 10.7997 2.57033L3.48951 6.68232C3.38663 6.74074 3.30097 6.82526 3.24118 6.92735C3.18138 7.02945 3.14956 7.1455 3.14893 7.26381V15.4546C3.14956 15.5729 3.18138 15.6889 3.24118 15.791C3.30097 15.8931 3.38663 15.9776 3.48951 16.0361L10.7997 20.148C10.8982 20.2049 11.01 20.2349 11.1237 20.2349C11.2374 20.2349 11.3492 20.2049 11.4477 20.148L18.7579 16.0361C18.8608 15.9776 18.9464 15.8931 19.0062 15.791C19.066 15.6889 19.0978 15.5729 19.0985 15.4546V15.4546Z" stroke="#A09D98" stroke-width="1.32913" stroke-linecap="round" stroke-linejoin="round"/>
  <path d="M19.0075 6.92328L11.1989 11.3592L3.24072 6.92328" stroke="#A09D98" stroke-width="1.32913" stroke-linecap="round" stroke-linejoin="round"/>
  <path d="M11.1983 11.3592L11.1235 20.2311" stroke="#A09D98" stroke-width="1.32913" stroke-linecap="round" stroke-linejoin="round"/>
  <path d="M15.1941 4.67206L11.1237 6.9648L7.05322 4.67206" stroke="#A09D98" stroke-width="1.32913" stroke-linecap="round" stroke-linejoin="round"/>
  <path d="M15.1113 18.0879V13.5107L19.0987 11.2678" stroke="#A09D98" stroke-width="1.32913" stroke-linecap="round" stroke-linejoin="round"/>
  <path d="M7.13631 18.0879V13.5107L3.14893 11.2678" stroke="#A09D98" stroke-width="1.32913" stroke-linecap="round" stroke-linejoin="round"/>
</svg>