<svg xmlns="http://www.w3.org/2000/svg" width="24" height="24" viewBox="0 0 24 24" fill="none">
  <path d="M11.9824 20.997C16.9456 20.997 20.9691 16.9734 20.9691 12.0102C20.9691 7.04695 16.9456 3.02344 11.9824 3.02344C7.01911 3.02344 2.99561 7.04695 2.99561 12.0102C2.99561 16.9734 7.01911 20.997 11.9824 20.997Z" stroke="#131313" stroke-width="1.49779" stroke-miterlimit="10"/>
  <path d="M3.5105 9.01465H20.4543" stroke="#131313" stroke-width="1.49779" stroke-linecap="round" stroke-linejoin="round"/>
  <path d="M3.5105 15.0059H20.4543" stroke="#131313" stroke-width="1.49779" stroke-linecap="round" stroke-linejoin="round"/>
  <path d="M11.9823 20.7538C14.0503 20.7538 15.7268 16.8393 15.7268 12.0105C15.7268 7.18163 14.0503 3.26709 11.9823 3.26709C9.91425 3.26709 8.23779 7.18163 8.23779 12.0105C8.23779 16.8393 9.91425 20.7538 11.9823 20.7538Z" stroke="#131313" stroke-width="1.49779" stroke-miterlimit="10"/>
</svg>