<svg width="42" height="40" viewBox="0 0 42 40" fill="none" xmlns="http://www.w3.org/2000/svg">
<path d="M21.0266 19.7752C19.8803 19.7752 19.1872 19.0555 19.2405 17.9359L19.5071 12.6843L14.6821 15.8832C14.3888 16.0965 14.0156 16.2031 13.5891 16.2031C12.7361 16.2031 11.9097 15.5367 11.9097 14.4171C11.9097 13.724 12.2296 13.2708 12.9227 12.8709L18.0143 10.1785L12.9227 7.48611C12.2296 7.11291 11.9097 6.63307 11.9097 5.93998C11.9097 4.84702 12.7361 4.18058 13.5891 4.18058C14.0156 4.18058 14.3888 4.28721 14.6821 4.47381L19.5071 7.59274L19.2405 2.12795C19.1872 1.00833 19.8803 0.288574 21.0266 0.288574C22.1195 0.288574 22.7593 0.955013 22.7326 2.12795L22.4394 7.59274L27.2111 4.47381C27.5043 4.28721 27.8775 4.18058 28.3041 4.18058C29.1571 4.18058 29.9835 4.84702 29.9835 5.93998C29.9835 6.63307 29.6636 7.11291 28.9705 7.48611L23.8789 10.1785L28.9705 12.8709C29.6636 13.2708 29.9835 13.724 29.9835 14.4171C29.9835 15.5367 29.1571 16.2031 28.3041 16.2031C27.8775 16.2031 27.5043 16.0965 27.2111 15.8832L22.4394 12.6843L22.7326 17.9359C22.786 19.1088 22.1195 19.7752 21.0266 19.7752ZM9.61713 39.2886C8.47085 39.2886 7.77776 38.5688 7.83107 37.4492L8.09765 32.1977L3.27263 35.3966C2.9794 35.6098 2.60619 35.7165 2.17967 35.7165C1.32663 35.7165 0.500244 35.05 0.500244 33.9304C0.500244 33.2373 0.820135 32.7841 1.51323 32.3843L6.60482 29.6919L1.51323 26.9994C0.820135 26.6262 0.500244 26.1464 0.500244 25.4533C0.500244 24.3603 1.32663 23.6939 2.17967 23.6939C2.60619 23.6939 2.9794 23.8005 3.27263 23.9871L8.09765 27.1061L7.83107 21.6413C7.77776 20.5217 8.47085 19.8019 9.61713 19.8019C10.7101 19.8019 11.3499 20.4683 11.3232 21.6413L11.03 27.1061L15.8017 23.9871C16.0949 23.8005 16.4681 23.6939 16.8946 23.6939C17.7477 23.6939 18.5741 24.3603 18.5741 25.4533C18.5741 26.1464 18.2542 26.6262 17.5611 26.9994L12.4695 29.6919L17.5611 32.3843C18.2542 32.7841 18.5741 33.2373 18.5741 33.9304C18.5741 35.05 17.7477 35.7165 16.8946 35.7165C16.4681 35.7165 16.0949 35.6098 15.8017 35.3966L11.03 32.1977L11.3232 37.4492C11.3765 38.6221 10.7101 39.2886 9.61713 39.2886ZM32.5426 39.2886C31.3963 39.2886 30.7032 38.5688 30.7566 37.4492L31.0231 32.1977L26.1981 35.3966C25.9049 35.6098 25.5317 35.7165 25.1052 35.7165C24.2521 35.7165 23.4257 35.05 23.4257 33.9304C23.4257 33.2373 23.7456 32.7841 24.4387 32.3843L29.5303 29.6919L24.4387 26.9994C23.7456 26.6262 23.4257 26.1464 23.4257 25.4533C23.4257 24.3603 24.2521 23.6939 25.1052 23.6939C25.5317 23.6939 25.9049 23.8005 26.1981 23.9871L31.0231 27.1061L30.7566 21.6413C30.7032 20.5217 31.3963 19.8019 32.5426 19.8019C33.6356 19.8019 34.2754 20.4683 34.2487 21.6413L33.9555 27.1061L38.7272 23.9871C39.0204 23.8005 39.3936 23.6939 39.8201 23.6939C40.6732 23.6939 41.4996 24.3603 41.4996 25.4533C41.4996 26.1464 41.1797 26.6262 40.4866 26.9994L35.395 29.6919L40.4866 32.3843C41.1797 32.7841 41.4996 33.2373 41.4996 33.9304C41.4996 35.05 40.6732 35.7165 39.8201 35.7165C39.3936 35.7165 39.0204 35.6098 38.7272 35.3966L33.9555 32.1977L34.2487 37.4492C34.302 38.6221 33.6356 39.2886 32.5426 39.2886Z" fill="#131313"/>
</svg>
