<svg xmlns="http://www.w3.org/2000/svg" width="36" height="27" viewBox="0 0 36 27" fill="none">
  <path d="M25.1256 12.6663H29.4456C32.4456 13.2663 34.9656 15.5463 34.9656 19.3863C34.9656 23.8263 31.6056 26.7063 27.4056 26.7063C22.2456 26.7063 19.3656 22.5063 19.3656 16.7463C19.3656 7.98628 25.0056 1.26627 35.4456 0.306274V3.06627C29.2056 4.02627 25.6056 7.62627 25.1256 12.6663ZM6.52563 12.6663H10.8456C13.8456 13.2663 16.3656 15.5463 16.3656 19.3863C16.3656 23.8263 13.0056 26.7063 8.80563 26.7063C3.64563 26.7063 0.765625 22.5063 0.765625 16.7463C0.765625 7.98628 6.40563 1.26627 16.8456 0.306274V3.06627C10.6056 4.02627 7.00563 7.62627 6.52563 12.6663Z" fill="#131313"/>
</svg>