<svg width="12" height="12" viewBox="0 0 12 12" fill="none" xmlns="http://www.w3.org/2000/svg">
<path d="M11.8774 0.937501V9.06251C11.8774 9.31115 11.7786 9.5496 11.6028 9.72542C11.427 9.90123 11.1886 10 10.9399 10C10.6913 10 10.4528 9.90123 10.277 9.72542C10.1012 9.5496 10.0024 9.31115 10.0024 9.06251V3.20313L1.60319 11.6008C1.42707 11.7769 1.1882 11.8759 0.939127 11.8759C0.690055 11.8759 0.451184 11.7769 0.275064 11.6008C0.0989436 11.4247 0 11.1858 0 10.9367C0 10.6877 0.0989436 10.4488 0.275064 10.2727L8.67429 1.875H2.81491C2.56627 1.875 2.32781 1.77623 2.152 1.60041C1.97618 1.4246 1.87741 1.18614 1.87741 0.937501C1.87741 0.68886 1.97618 0.450403 2.152 0.274587C2.32781 0.098772 2.56627 0 2.81491 0H10.9399C11.1886 0 11.427 0.098772 11.6028 0.274587C11.7786 0.450403 11.8774 0.68886 11.8774 0.937501Z" fill="white"/>
</svg>
