<svg width="1471" height="279" viewBox="0 0 1471 279" fill="none" xmlns="http://www.w3.org/2000/svg">
<mask id="path-1-inside-1_1231_173" fill="white">
<path d="M81.9576 278.788C48.1196 278.788 19.0632 268.49 2.8798 254.881L0.30517 191.987H13.1783C21.6378 237.962 44.8094 265.547 81.9576 265.547C114.324 265.547 133.818 247.157 133.818 220.307C133.818 191.251 117.635 179.849 71.2913 161.459C31.2007 145.643 2.8798 127.989 2.8798 84.9557C2.8798 43.7617 34.1431 13.234 83.7966 13.234C113.589 13.234 140.438 21.3257 158.829 34.5666V89.3693H146.691C140.806 48.5431 119.106 26.4749 83.7966 26.4749C56.2113 26.4749 39.6602 43.7617 39.6602 68.0367C39.6602 95.2542 52.9011 105.92 93.3595 121.736C143.013 141.597 170.966 160.355 170.966 203.756C170.966 252.306 130.508 278.788 81.9576 278.788ZM286.847 266.651C317.007 266.651 332.823 233.916 332.823 184.998C332.823 133.506 318.11 90.8405 285.008 90.8405C254.848 90.8405 239.4 123.575 239.4 172.493C239.4 223.618 254.113 266.651 286.847 266.651ZM285.008 278.788C231.309 278.788 195.632 240.537 195.632 183.159C195.632 120.265 235.355 78.703 286.847 78.703C340.546 78.703 376.223 117.322 376.223 173.964C376.223 237.226 336.501 278.788 285.008 278.788ZM434.624 166.976C434.624 215.526 457.428 248.26 494.943 248.26C518.851 248.26 535.402 237.594 547.539 219.204L553.056 221.779C541.655 258.927 516.276 278.788 480.967 278.788C432.417 278.788 398.211 241.64 398.211 185.366C398.211 124.311 433.888 78.703 490.162 78.703C525.103 78.703 547.907 93.4152 547.907 119.161C547.907 129.828 542.39 138.655 535.034 142.701H510.759C511.495 137.919 512.23 132.77 512.23 126.15C512.23 107.76 505.978 91.2084 483.542 91.2084C453.014 91.2084 434.624 124.311 434.624 166.976ZM630.324 141.23V245.686C630.324 260.398 638.783 262.973 662.323 264.444V275.11H564.855V264.444C583.245 263.34 589.13 260.766 589.13 247.157V115.851L565.958 102.978V97.8288L625.543 78.703H631.795L630.324 131.667C649.45 93.0474 659.013 78.703 680.345 78.703C687.334 78.703 692.483 81.2777 695.425 84.5879V117.69H689.173C666.737 117.69 650.185 119.161 630.324 141.23ZM778.83 253.778C791.703 253.778 801.266 247.893 814.139 237.594V168.447L775.52 184.263C758.233 190.883 748.303 200.446 748.303 220.307C748.303 240.169 758.233 253.778 778.83 253.778ZM855.333 136.816V234.284C855.333 248.996 858.276 256.72 868.574 256.72C874.459 256.72 879.609 254.881 884.39 252.674L886.597 259.295C877.034 272.168 863.793 278.788 848.345 278.788C829.219 278.788 817.818 266.283 814.875 246.054C802.37 261.134 782.508 278.42 756.762 278.42C727.338 278.42 708.58 260.03 708.58 231.709C708.58 200.446 731.384 187.573 760.072 176.907L814.139 157.045V129.092C814.139 105.92 805.68 89.0015 783.612 89.0015C764.118 89.0015 756.027 102.61 756.027 121C756.027 127.621 757.13 133.874 758.969 141.597L734.694 144.908C725.131 141.965 719.246 134.609 719.246 123.575C719.246 94.5186 749.406 78.703 788.025 78.703C832.162 78.703 855.333 96.3576 855.333 136.816ZM949.807 35.67V82.3811H1000.2V97.461H949.807V219.204C949.807 244.215 959.002 254.513 978.128 254.513C989.162 254.513 996.886 251.203 1006.45 244.215L1010.49 249.732C999.829 265.547 982.542 278.788 958.267 278.788C930.314 278.788 908.981 263.708 908.981 223.618V97.461H885.074V90.8405C907.878 79.4386 927.003 59.2094 940.98 35.67H949.807ZM1083.61 78.703V247.157C1083.61 260.766 1089.5 263.34 1107.89 264.444V275.11H1018.14V264.444C1036.53 263.34 1042.42 260.766 1042.42 247.157V115.851L1019.25 102.978V97.8288L1077.73 78.703H1083.61ZM1061.91 52.589C1046.83 52.589 1035.8 40.8193 1035.8 26.8427C1035.8 12.4984 1046.83 0.728664 1061.91 0.728664C1076.99 0.728664 1088.39 12.4984 1088.39 26.8427C1088.39 40.8193 1076.99 52.589 1061.91 52.589ZM1158.38 166.976C1158.38 215.526 1181.18 248.26 1218.7 248.26C1242.6 248.26 1259.16 237.594 1271.29 219.204L1276.81 221.779C1265.41 258.927 1240.03 278.788 1204.72 278.788C1156.17 278.788 1121.97 241.64 1121.97 185.366C1121.97 124.311 1157.64 78.703 1213.92 78.703C1248.86 78.703 1271.66 93.4152 1271.66 119.161C1271.66 129.828 1266.14 138.655 1258.79 142.701H1234.51C1235.25 137.919 1235.98 132.77 1235.98 126.15C1235.98 107.76 1229.73 91.2084 1207.3 91.2084C1176.77 91.2084 1158.38 124.311 1158.38 166.976ZM1363.22 253.778C1376.09 253.778 1385.66 247.893 1398.53 237.594V168.447L1359.91 184.263C1342.62 190.883 1332.69 200.446 1332.69 220.307C1332.69 240.169 1342.62 253.778 1363.22 253.778ZM1439.72 136.816V234.284C1439.72 248.996 1442.67 256.72 1452.97 256.72C1458.85 256.72 1464 254.881 1468.78 252.674L1470.99 259.295C1461.43 272.168 1448.18 278.788 1432.74 278.788C1413.61 278.788 1402.21 266.283 1399.27 246.054C1386.76 261.134 1366.9 278.42 1341.15 278.42C1311.73 278.42 1292.97 260.03 1292.97 231.709C1292.97 200.446 1315.77 187.573 1344.46 176.907L1398.53 157.045V129.092C1398.53 105.92 1390.07 89.0015 1368 89.0015C1348.51 89.0015 1340.42 102.61 1340.42 121C1340.42 127.621 1341.52 133.874 1343.36 141.597L1319.09 144.908C1309.52 141.965 1303.64 134.609 1303.64 123.575C1303.64 94.5186 1333.8 78.703 1372.42 78.703C1416.55 78.703 1439.72 96.3576 1439.72 136.816Z"/>
</mask>
<path d="M2.87979 254.881L-0.117691 255.004L-0.0635834 256.326L0.94899 257.177L2.87979 254.881ZM0.305176 191.987V188.987H-2.82015L-2.69232 192.109L0.305176 191.987ZM13.1783 191.987L16.1288 191.444L15.6767 188.987H13.1783V191.987ZM71.2913 161.459L72.3978 158.67L72.3922 158.668L71.2913 161.459ZM158.829 34.5666H161.829V33.0299L160.581 32.132L158.829 34.5666ZM158.829 89.3693V92.3693H161.829V89.3693H158.829ZM146.691 89.3693L143.722 89.7973L144.092 92.3693H146.691V89.3693ZM93.3595 121.736L94.4736 118.951L94.4627 118.946L94.4517 118.942L93.3595 121.736ZM81.9576 275.788C48.6311 275.788 20.3208 265.628 4.81059 252.585L0.94899 257.177C17.8055 271.352 47.6081 281.788 81.9576 281.788V275.788ZM5.87729 254.758L3.30266 191.864L-2.69232 192.109L-0.117691 255.004L5.87729 254.758ZM0.305176 194.987H13.1783V188.987H0.305176V194.987ZM10.2278 192.529C14.5187 215.849 22.5941 234.83 34.5899 248.026C46.6607 261.304 62.5509 268.547 81.9576 268.547V262.547C64.2161 262.547 49.9464 255.998 39.0295 243.99C28.0375 231.898 20.2974 214.099 16.1288 191.444L10.2278 192.529ZM81.9576 268.547C98.6974 268.547 112.432 263.787 122.022 255.235C131.644 246.655 136.818 234.498 136.818 220.307H130.818C130.818 232.967 126.245 243.43 118.029 250.757C109.78 258.113 97.5844 262.547 81.9576 262.547V268.547ZM136.818 220.307C136.818 205.062 132.503 194.081 121.931 184.645C111.641 175.461 95.524 167.847 72.3978 158.67L70.1847 164.247C93.4017 173.46 108.548 180.742 117.936 189.121C127.041 197.248 130.818 206.496 130.818 220.307H136.818ZM72.3922 158.668C52.3953 150.779 35.7785 142.589 24.1441 131.264C12.6578 120.084 5.87979 105.698 5.87979 84.9557H-0.120201C-0.120201 107.246 7.26221 123.205 19.959 135.564C32.5077 147.778 50.0966 156.323 70.1903 164.25L72.3922 158.668ZM5.87979 84.9557C5.87979 65.153 13.3759 48.0445 26.739 35.8643C40.1186 23.6692 59.5854 16.234 83.7966 16.234V10.234C58.3543 10.234 37.3627 18.0627 22.6972 31.4299C8.01534 44.8121 -0.120201 63.5644 -0.120201 84.9557H5.87979ZM83.7966 16.234C113.095 16.234 139.296 24.2 157.076 37.0012L160.581 32.132C141.581 18.4513 114.082 10.234 83.7966 10.234V16.234ZM155.829 34.5666V89.3693H161.829V34.5666H155.829ZM158.829 86.3693H146.691V92.3693H158.829V86.3693ZM149.66 88.9413C146.659 68.1189 139.574 51.7142 128.404 40.4956C117.18 29.2235 102.118 23.4749 83.7966 23.4749V29.4749C100.784 29.4749 114.227 34.7605 124.152 44.729C134.131 54.751 140.838 69.7936 143.722 89.7973L149.66 88.9413ZM83.7966 23.4749C69.3686 23.4749 57.5368 28.0074 49.2955 35.999C41.0506 43.994 36.6602 55.2003 36.6602 68.0367H42.6602C42.6602 56.5981 46.5453 47.0235 53.4723 40.3064C60.4029 33.5859 70.6393 29.4749 83.7966 29.4749V23.4749ZM36.6602 68.0367C36.6602 82.2371 40.1586 92.5746 49.2586 101.325C58.106 109.832 72.0597 116.631 92.2672 124.53L94.4517 118.942C74.2008 111.026 61.3049 104.584 53.4172 96.9996C45.7821 89.6582 42.6602 81.0538 42.6602 68.0367H36.6602ZM92.2453 124.521C117.043 134.441 135.967 143.922 148.711 156.089C161.281 168.089 167.966 182.83 167.966 203.756H173.966C173.966 181.282 166.675 164.943 152.854 151.749C139.209 138.721 119.329 128.893 94.4736 118.951L92.2453 124.521ZM167.966 203.756C167.966 227.102 158.281 244.992 142.817 257.118C127.276 269.303 105.723 275.788 81.9576 275.788V281.788C106.742 281.788 129.693 275.032 146.519 261.839C163.421 248.586 173.966 228.961 173.966 203.756H167.966ZM286.847 269.651C303.262 269.651 315.657 260.639 323.784 245.595C331.839 230.684 335.823 209.71 335.823 184.998H329.823C329.823 209.204 325.899 229.057 318.505 242.743C311.184 256.295 300.592 263.651 286.847 263.651V269.651ZM335.823 184.998C335.823 159.036 332.124 135.014 324.057 117.363C315.969 99.6639 303.177 87.8405 285.008 87.8405V93.8405C299.942 93.8405 311.057 103.35 318.6 119.857C326.166 136.412 329.823 159.468 329.823 184.998H335.823ZM285.008 87.8405C268.586 87.8405 256.281 96.8604 248.248 111.91C240.289 126.82 236.4 147.79 236.4 172.493H242.4C242.4 148.277 246.235 128.422 253.541 114.735C260.772 101.188 271.27 93.8405 285.008 93.8405V87.8405ZM236.4 172.493C236.4 198.275 240.101 222.291 248.116 239.982C256.145 257.703 268.837 269.651 286.847 269.651V263.651C272.123 263.651 261.092 254.082 253.581 237.505C246.056 220.898 242.4 197.836 242.4 172.493H236.4ZM285.008 275.788C258.903 275.788 237.383 266.509 222.375 250.442C207.35 234.357 198.632 211.226 198.632 183.159H192.632C192.632 212.47 201.752 237.154 217.99 254.538C234.246 271.941 257.414 281.788 285.008 281.788V275.788ZM198.632 183.159C198.632 121.606 237.311 81.703 286.847 81.703V75.703C233.399 75.703 192.632 118.924 192.632 183.159H198.632ZM286.847 81.703C312.944 81.703 334.467 91.0682 349.48 107.141C364.511 123.232 373.223 146.274 373.223 173.964L379.223 173.964C379.223 145.013 370.098 120.424 353.865 103.045C337.614 85.6476 314.449 75.703 286.847 75.703V81.703ZM373.223 173.964C373.223 235.893 334.538 275.788 285.008 275.788V281.788C338.463 281.788 379.223 238.56 379.223 173.964L373.223 173.964ZM547.539 219.204L548.808 216.485L546.462 215.391L545.036 217.551L547.539 219.204ZM553.056 221.779L555.924 222.659L556.69 220.164L554.325 219.06L553.056 221.779ZM535.034 142.701V145.701H535.805L536.48 145.329L535.034 142.701ZM510.759 142.701L507.794 142.245L507.262 145.701H510.759V142.701ZM431.624 166.976C431.624 191.677 437.42 212.68 448.291 227.592C459.23 242.596 475.199 251.26 494.943 251.26V245.26C477.172 245.26 462.981 237.557 453.139 224.057C443.23 210.464 437.624 190.825 437.624 166.976H431.624ZM494.943 251.26C519.981 251.26 537.422 239.98 550.043 220.857L545.036 217.551C533.382 235.208 517.72 245.26 494.943 245.26V251.26ZM546.271 221.923L551.788 224.497L554.325 219.06L548.808 216.485L546.271 221.923ZM550.188 220.898C544.626 239.02 535.726 252.704 524.119 261.858C512.529 270.999 498.034 275.788 480.967 275.788V281.788C499.209 281.788 515.057 276.647 527.835 266.57C540.594 256.506 550.085 241.685 555.924 222.659L550.188 220.898ZM480.967 275.788C457.5 275.788 437.639 266.832 423.617 251.178C409.573 235.5 401.211 212.9 401.211 185.366H395.211C395.211 214.106 403.952 238.217 419.148 255.182C434.367 272.171 455.884 281.788 480.967 281.788V275.788ZM401.211 185.366C401.211 155.403 409.965 129.461 425.383 111.066C440.762 92.718 462.905 81.703 490.162 81.703V75.703C461.145 75.703 437.313 87.4919 420.785 107.212C404.296 126.884 395.211 154.273 395.211 185.366H401.211ZM490.162 81.703C507.267 81.703 521.04 85.3123 530.442 91.7525C539.723 98.1088 544.907 107.312 544.907 119.161H550.907C550.907 105.265 544.69 94.2386 533.833 86.8023C523.098 79.4498 507.998 75.703 490.162 75.703V81.703ZM544.907 119.161C544.907 128.815 539.916 136.592 533.588 140.072L536.48 145.329C544.864 140.718 550.907 130.84 550.907 119.161H544.907ZM535.034 139.701H510.759V145.701H535.034V139.701ZM513.724 143.157C514.465 138.34 515.23 133.007 515.23 126.15H509.23C509.23 132.533 508.524 137.499 507.794 142.245L513.724 143.157ZM515.23 126.15C515.23 116.708 513.642 107.261 508.782 100.098C503.781 92.7281 495.612 88.2084 483.542 88.2084V94.2084C493.907 94.2084 500.083 97.9642 503.817 103.467C507.692 109.178 509.23 117.201 509.23 126.15H515.23ZM483.542 88.2084C467.015 88.2084 453.914 97.2305 445.083 111.515C436.296 125.728 431.624 145.262 431.624 166.976H437.624C437.624 146.024 442.147 127.675 450.186 114.67C458.182 101.737 469.541 94.2084 483.542 94.2084V88.2084ZM630.324 141.23L628.094 139.223L627.324 140.078V141.23H630.324ZM662.323 264.444H665.323V261.625L662.51 261.45L662.323 264.444ZM662.323 275.11V278.11H665.323V275.11H662.323ZM564.855 275.11H561.855V278.11H564.855V275.11ZM564.855 264.444L564.675 261.449L561.855 261.618V264.444H564.855ZM589.13 115.851H592.13V114.086L590.587 113.229L589.13 115.851ZM565.958 102.978H562.958V104.743L564.501 105.601L565.958 102.978ZM565.958 97.8288L565.041 94.9724L562.958 95.641V97.8288H565.958ZM625.542 78.703V75.703H625.073L624.626 75.8466L625.542 78.703ZM631.795 78.703L634.794 78.7863L634.88 75.703H631.795V78.703ZM630.324 131.667L627.325 131.583L633.012 132.998L630.324 131.667ZM695.425 84.5879H698.425V83.4473L697.667 82.5948L695.425 84.5879ZM695.425 117.69V120.69H698.425V117.69H695.425ZM627.324 141.23V245.686H633.324V141.23H627.324ZM627.324 245.686C627.324 249.621 627.885 253.053 629.328 255.953C630.805 258.921 633.087 261.097 636.097 262.684C639.036 264.234 642.661 265.22 646.903 265.921C651.162 266.625 656.228 267.069 662.136 267.438L662.51 261.45C656.648 261.083 651.829 260.654 647.882 260.001C643.917 259.346 641.014 258.493 638.895 257.376C636.847 256.297 635.544 254.978 634.699 253.28C633.821 251.514 633.324 249.107 633.324 245.686H627.324ZM659.323 264.444V275.11H665.323V264.444H659.323ZM662.323 272.11H564.855V278.11H662.323V272.11ZM567.855 275.11V264.444H561.855V275.11H567.855ZM565.035 267.438C569.668 267.16 573.642 266.784 576.978 266.136C580.305 265.49 583.193 264.54 585.539 262.995C590.571 259.681 592.13 254.335 592.13 247.157H586.13C586.13 253.588 584.746 256.333 582.239 257.984C580.814 258.923 578.783 259.674 575.835 260.246C572.895 260.817 569.237 261.176 564.675 261.449L565.035 267.438ZM592.13 247.157V115.851H586.13V247.157H592.13ZM590.587 113.229L567.415 100.356L564.501 105.601L587.673 118.474L590.587 113.229ZM568.958 102.978V97.8288H562.958V102.978H568.958ZM566.875 100.685L626.459 81.5595L624.626 75.8466L565.041 94.9724L566.875 100.685ZM625.542 81.703H631.795V75.703H625.542V81.703ZM628.796 78.6197L627.325 131.583L633.323 131.75L634.794 78.7863L628.796 78.6197ZM633.012 132.998C642.61 113.619 649.616 100.754 656.753 92.6911C660.274 88.7146 663.747 86.0035 667.483 84.2687C671.211 82.5375 675.362 81.703 680.345 81.703V75.703C674.662 75.703 669.618 76.6616 664.956 78.8268C660.301 80.9884 656.189 84.2771 652.261 88.7141C644.502 97.4787 637.164 111.095 627.636 130.335L633.012 132.998ZM680.345 81.703C686.594 81.703 690.883 83.9939 693.183 86.581L697.667 82.5948C694.082 78.5614 688.073 75.703 680.345 75.703V81.703ZM692.425 84.5879V117.69H698.425V84.5879H692.425ZM695.425 114.69H689.173V120.69H695.425V114.69ZM689.173 114.69C677.945 114.69 667.766 115.044 657.838 118.337C647.825 121.658 638.3 127.882 628.094 139.223L632.554 143.237C642.209 132.509 650.89 126.963 659.727 124.032C668.65 121.072 677.964 120.69 689.173 120.69V114.69ZM814.139 237.594L816.014 239.937L817.139 239.036V237.594H814.139ZM814.139 168.447H817.139V163.977L813.003 165.671L814.139 168.447ZM775.52 184.263L776.593 187.064L776.625 187.052L776.657 187.039L775.52 184.263ZM884.39 252.674L887.236 251.725L886.176 248.546L883.133 249.95L884.39 252.674ZM886.597 259.295L889.005 261.084L889.937 259.829L889.443 258.346L886.597 259.295ZM814.875 246.054L817.844 245.622L816.873 238.945L812.566 244.139L814.875 246.054ZM760.072 176.907L759.038 174.091L759.027 174.095L760.072 176.907ZM814.139 157.045L815.174 159.861L817.139 159.139V157.045H814.139ZM758.969 141.597L759.374 144.57L762.654 144.123L761.887 140.903L758.969 141.597ZM734.694 144.908L733.812 147.775L734.444 147.97L735.099 147.88L734.694 144.908ZM778.83 256.778C792.804 256.778 803.071 250.291 816.014 239.937L812.265 235.252C799.461 245.495 790.603 250.778 778.83 250.778V256.778ZM817.139 237.594V168.447H811.139V237.594H817.139ZM813.003 165.671L774.383 181.486L776.657 187.039L815.276 171.223L813.003 165.671ZM774.447 181.461C765.572 184.86 758.217 189.146 753.103 195.425C747.934 201.771 745.303 209.843 745.303 220.307H751.303C751.303 210.911 753.637 204.27 757.755 199.214C761.928 194.091 768.181 190.286 776.593 187.064L774.447 181.461ZM745.303 220.307C745.303 230.697 747.898 239.849 753.567 246.446C759.298 253.114 767.83 256.778 778.83 256.778V250.778C769.234 250.778 762.502 247.637 758.118 242.535C753.673 237.363 751.303 229.779 751.303 220.307H745.303ZM852.333 136.816V234.284H858.333V136.816H852.333ZM852.333 234.284C852.333 241.692 853.046 247.961 855.449 252.437C856.693 254.757 858.411 256.637 860.708 257.908C862.983 259.167 865.629 259.72 868.574 259.72V253.72C866.371 253.72 864.786 253.307 863.613 252.658C862.463 252.022 861.514 251.051 860.735 249.601C859.092 246.537 858.333 241.588 858.333 234.284H852.333ZM868.574 259.72C875.098 259.72 880.713 257.675 885.647 255.398L883.133 249.95C878.504 252.087 873.821 253.72 868.574 253.72V259.72ZM881.544 253.623L883.751 260.243L889.443 258.346L887.236 251.725L881.544 253.623ZM884.189 257.506C875.183 269.629 862.829 275.788 848.345 275.788V281.788C864.757 281.788 878.885 274.706 889.005 261.084L884.189 257.506ZM848.345 275.788C839.485 275.788 832.652 272.916 827.671 267.894C822.64 262.822 819.252 255.303 817.844 245.622L811.906 246.485C813.441 257.033 817.225 265.882 823.411 272.12C829.649 278.408 838.079 281.788 848.345 281.788V275.788ZM812.566 244.139C800.222 259.024 781.129 275.42 756.762 275.42V281.42C783.888 281.42 804.518 263.243 817.184 247.969L812.566 244.139ZM756.762 275.42C742.68 275.42 731.436 271.031 723.728 263.535C716.029 256.046 711.58 245.189 711.58 231.709H705.58C705.58 246.55 710.51 259.049 719.545 267.836C728.573 276.615 741.42 281.42 756.762 281.42V275.42ZM711.58 231.709C711.58 216.945 716.908 206.709 725.588 198.802C734.419 190.758 746.82 185.034 761.118 179.719L759.027 174.095C744.636 179.445 731.291 185.491 721.548 194.366C711.654 203.378 705.58 215.21 705.58 231.709H711.58ZM761.107 179.723L815.174 159.861L813.105 154.229L759.038 174.091L761.107 179.723ZM817.139 157.045V129.092H811.139V157.045H817.139ZM817.139 129.092C817.139 117.224 814.987 106.501 809.628 98.664C804.14 90.6403 795.536 86.0015 783.612 86.0015V92.0015C793.756 92.0015 800.415 95.8222 804.675 102.051C809.062 108.466 811.139 117.789 811.139 129.092H817.139ZM783.612 86.0015C773.096 86.0015 765.263 89.7153 760.146 96.2563C755.124 102.676 753.027 111.427 753.027 121H759.027C759.027 112.183 760.975 104.935 764.872 99.9531C768.674 95.0921 774.634 92.0015 783.612 92.0015V86.0015ZM753.027 121C753.027 127.968 754.192 134.487 756.051 142.292L761.887 140.903C760.068 133.26 759.027 127.274 759.027 121H753.027ZM758.564 138.625L734.289 141.935L735.099 147.88L759.374 144.57L758.564 138.625ZM735.576 142.04C731.31 140.728 728.022 138.485 725.791 135.486C723.564 132.49 722.246 128.544 722.246 123.575H716.246C716.246 129.64 717.871 134.89 720.977 139.066C724.079 143.238 728.515 146.145 733.812 147.775L735.576 142.04ZM722.246 123.575C722.246 110.275 729.074 99.9446 740.722 92.8001C752.472 85.5932 769.069 81.703 788.025 81.703V75.703C768.363 75.703 750.57 79.7206 737.585 87.6856C724.498 95.713 716.246 107.819 716.246 123.575H722.246ZM788.025 81.703C809.778 81.703 825.772 86.0676 836.305 94.8877C846.729 103.617 852.333 117.167 852.333 136.816H858.333C858.333 116.007 852.353 100.5 840.157 90.2876C828.069 80.1657 810.41 75.703 788.025 75.703V81.703ZM949.807 35.67H952.807V32.67H949.807V35.67ZM949.807 82.3811H946.807V85.3811H949.807V82.3811ZM1000.2 82.3811H1003.2V79.3811H1000.2V82.3811ZM1000.2 97.461V100.461H1003.2V97.461H1000.2ZM949.807 97.461V94.461H946.807V97.461H949.807ZM1006.45 244.215L1008.87 242.441L1007.1 240.025L1004.68 241.792L1006.45 244.215ZM1010.49 249.732L1012.98 251.409L1014.16 249.659L1012.91 247.958L1010.49 249.732ZM908.981 97.461H911.981V94.461H908.981V97.461ZM885.074 97.461H882.074V100.461H885.074V97.461ZM885.074 90.8405L883.732 88.1573L882.074 88.9864V90.8405H885.074ZM940.98 35.67V32.67H939.272L938.4 34.1384L940.98 35.67ZM946.807 35.67V82.3811H952.807V35.67H946.807ZM949.807 85.3811H1000.2V79.3811H949.807V85.3811ZM997.196 82.3811V97.461H1003.2V82.3811H997.196ZM1000.2 94.461H949.807V100.461H1000.2V94.461ZM946.807 97.461V219.204H952.807V97.461H946.807ZM946.807 219.204C946.807 231.971 949.134 241.646 954.479 248.143C959.935 254.777 968.033 257.513 978.128 257.513V251.513C969.097 251.513 963.035 249.1 959.112 244.332C955.078 239.427 952.807 231.448 952.807 219.204H946.807ZM978.128 257.513C989.977 257.513 998.307 253.88 1008.22 246.637L1004.68 241.792C995.465 248.526 988.348 251.513 978.128 251.513V257.513ZM1004.03 245.989L1008.08 251.506L1012.91 247.958L1008.87 242.441L1004.03 245.989ZM1008.01 248.054C997.745 263.272 981.297 275.788 958.267 275.788V281.788C983.787 281.788 1001.91 267.822 1012.98 251.409L1008.01 248.054ZM958.267 275.788C944.804 275.788 933.352 272.162 925.257 264.11C917.17 256.065 911.981 243.149 911.981 223.618H905.981C905.981 244.176 911.458 258.846 921.026 268.364C930.586 277.874 943.776 281.788 958.267 281.788V275.788ZM911.981 223.618V97.461H905.981V223.618H911.981ZM908.981 94.461H885.074V100.461H908.981V94.461ZM888.074 97.461V90.8405H882.074V97.461H888.074ZM886.416 93.5238C909.868 81.7976 929.377 61.0886 943.56 37.2016L938.4 34.1384C924.63 57.3303 905.887 77.0797 883.732 88.1573L886.416 93.5238ZM940.98 38.67H949.807V32.67H940.98V38.67ZM1083.61 78.703H1086.61V75.703H1083.61V78.703ZM1107.89 264.444H1110.89V261.618L1108.07 261.449L1107.89 264.444ZM1107.89 275.11V278.11H1110.89V275.11H1107.89ZM1018.14 275.11H1015.14V278.11H1018.14V275.11ZM1018.14 264.444L1017.96 261.449L1015.14 261.618V264.444H1018.14ZM1042.42 115.851H1045.42V114.086L1043.88 113.229L1042.42 115.851ZM1019.25 102.978H1016.25V104.743L1017.79 105.601L1019.25 102.978ZM1019.25 97.8288L1018.31 94.9774L1016.25 95.6536V97.8288H1019.25ZM1077.73 78.703V75.703H1077.25L1076.8 75.8516L1077.73 78.703ZM1080.61 78.703V247.157H1086.61V78.703H1080.61ZM1080.61 247.157C1080.61 254.335 1082.17 259.681 1087.2 262.995C1089.55 264.54 1092.44 265.49 1095.77 266.136C1099.1 266.784 1103.08 267.16 1107.71 267.438L1108.07 261.449C1103.51 261.176 1099.85 260.817 1096.91 260.246C1093.96 259.674 1091.93 258.923 1090.5 257.984C1088 256.333 1086.61 253.588 1086.61 247.157H1080.61ZM1104.89 264.444V275.11H1110.89V264.444H1104.89ZM1107.89 272.11H1018.14V278.11H1107.89V272.11ZM1021.14 275.11V264.444H1015.14V275.11H1021.14ZM1018.32 267.438C1022.96 267.16 1026.93 266.784 1030.27 266.136C1033.59 265.49 1036.48 264.54 1038.83 262.995C1043.86 259.681 1045.42 254.335 1045.42 247.157H1039.42C1039.42 253.588 1038.04 256.333 1035.53 257.984C1034.1 258.923 1032.07 259.674 1029.12 260.246C1026.18 260.817 1022.53 261.176 1017.96 261.449L1018.32 267.438ZM1045.42 247.157V115.851H1039.42V247.157H1045.42ZM1043.88 113.229L1020.7 100.356L1017.79 105.601L1040.96 118.474L1043.88 113.229ZM1022.25 102.978V97.8288H1016.25V102.978H1022.25ZM1020.18 100.68L1078.66 81.5544L1076.8 75.8516L1018.31 94.9774L1020.18 100.68ZM1077.73 81.703H1083.61V75.703H1077.73V81.703ZM1061.91 49.589C1048.52 49.589 1038.8 39.1903 1038.8 26.8427H1032.8C1032.8 42.4482 1045.15 55.589 1061.91 55.589V49.589ZM1038.8 26.8427C1038.8 14.0995 1048.54 3.72867 1061.91 3.72867V-2.27133C1045.12 -2.27133 1032.8 10.8973 1032.8 26.8427H1038.8ZM1061.91 3.72867C1075.34 3.72867 1085.39 14.1552 1085.39 26.8427H1091.39C1091.39 10.8415 1078.65 -2.27133 1061.91 -2.27133V3.72867ZM1085.39 26.8427C1085.39 39.1349 1075.36 49.589 1061.91 49.589V55.589C1078.62 55.589 1091.39 42.5036 1091.39 26.8427H1085.39ZM1271.29 219.204L1272.56 216.485L1270.22 215.391L1268.79 217.551L1271.29 219.204ZM1276.81 221.779L1279.68 222.659L1280.44 220.164L1278.08 219.06L1276.81 221.779ZM1258.79 142.701V145.701H1259.56L1260.23 145.329L1258.79 142.701ZM1234.51 142.701L1231.55 142.245L1231.02 145.701H1234.51V142.701ZM1155.38 166.976C1155.38 191.677 1161.17 212.68 1172.05 227.592C1182.98 242.596 1198.95 251.26 1218.7 251.26V245.26C1200.93 245.26 1186.74 237.557 1176.89 224.057C1166.98 210.464 1161.38 190.825 1161.38 166.976H1155.38ZM1218.7 251.26C1243.74 251.26 1261.18 239.98 1273.8 220.857L1268.79 217.551C1257.14 235.208 1241.47 245.26 1218.7 245.26V251.26ZM1270.02 221.923L1275.54 224.497L1278.08 219.06L1272.56 216.485L1270.02 221.923ZM1273.94 220.898C1268.38 239.02 1259.48 252.704 1247.87 261.858C1236.28 270.999 1221.79 275.788 1204.72 275.788V281.788C1222.96 281.788 1238.81 276.647 1251.59 266.57C1264.35 256.506 1273.84 241.685 1279.68 222.659L1273.94 220.898ZM1204.72 275.788C1181.25 275.788 1161.39 266.832 1147.37 251.178C1133.33 235.5 1124.97 212.9 1124.97 185.366H1118.97C1118.97 214.106 1127.71 238.217 1142.9 255.182C1158.12 272.171 1179.64 281.788 1204.72 281.788V275.788ZM1124.97 185.366C1124.97 155.403 1133.72 129.461 1149.14 111.066C1164.52 92.718 1186.66 81.703 1213.92 81.703V75.703C1184.9 75.703 1161.07 87.4919 1144.54 107.212C1128.05 126.884 1118.97 154.273 1118.97 185.366H1124.97ZM1213.92 81.703C1231.02 81.703 1244.79 85.3123 1254.2 91.7525C1263.48 98.1088 1268.66 107.312 1268.66 119.161H1274.66C1274.66 105.265 1268.44 94.2386 1257.59 86.8023C1246.85 79.4498 1231.75 75.703 1213.92 75.703V81.703ZM1268.66 119.161C1268.66 128.815 1263.67 136.592 1257.34 140.072L1260.23 145.329C1268.62 140.718 1274.66 130.84 1274.66 119.161H1268.66ZM1258.79 139.701H1234.51V145.701H1258.79V139.701ZM1237.48 143.157C1238.22 138.34 1238.98 133.007 1238.98 126.15H1232.98C1232.98 132.533 1232.28 137.499 1231.55 142.245L1237.48 143.157ZM1238.98 126.15C1238.98 116.708 1237.4 107.261 1232.54 100.098C1227.53 92.7281 1219.37 88.2084 1207.3 88.2084V94.2084C1217.66 94.2084 1223.84 97.9642 1227.57 103.467C1231.45 109.178 1232.98 117.201 1232.98 126.15H1238.98ZM1207.3 88.2084C1190.77 88.2084 1177.67 97.2305 1168.84 111.515C1160.05 125.728 1155.38 145.262 1155.38 166.976H1161.38C1161.38 146.024 1165.9 127.675 1173.94 114.67C1181.94 101.737 1193.3 94.2084 1207.3 94.2084V88.2084ZM1398.53 237.594L1400.4 239.937L1401.53 239.036V237.594H1398.53ZM1398.53 168.447H1401.53V163.977L1397.39 165.671L1398.53 168.447ZM1359.91 184.263L1360.98 187.064L1361.02 187.052L1361.05 187.039L1359.91 184.263ZM1468.78 252.674L1471.63 251.725L1470.57 248.546L1467.52 249.95L1468.78 252.674ZM1470.99 259.295L1473.4 261.084L1474.33 259.829L1473.83 258.346L1470.99 259.295ZM1399.27 246.054L1402.23 245.622L1401.26 238.945L1396.96 244.139L1399.27 246.054ZM1344.46 176.907L1343.43 174.091L1343.42 174.095L1344.46 176.907ZM1398.53 157.045L1399.57 159.861L1401.53 159.139V157.045H1398.53ZM1343.36 141.597L1343.77 144.57L1347.05 144.123L1346.28 140.903L1343.36 141.597ZM1319.09 144.908L1318.2 147.775L1318.83 147.97L1319.49 147.88L1319.09 144.908ZM1363.22 256.778C1377.2 256.778 1387.46 250.291 1400.4 239.937L1396.66 235.252C1383.85 245.495 1374.99 250.778 1363.22 250.778V256.778ZM1401.53 237.594V168.447H1395.53V237.594H1401.53ZM1397.39 165.671L1358.77 181.486L1361.05 187.039L1399.67 171.223L1397.39 165.671ZM1358.84 181.461C1349.96 184.86 1342.61 189.146 1337.49 195.425C1332.33 201.771 1329.69 209.843 1329.69 220.307H1335.69C1335.69 210.911 1338.03 204.27 1342.15 199.214C1346.32 194.091 1352.57 190.286 1360.98 187.064L1358.84 181.461ZM1329.69 220.307C1329.69 230.697 1332.29 239.849 1337.96 246.446C1343.69 253.114 1352.22 256.778 1363.22 256.778V250.778C1353.63 250.778 1346.89 247.637 1342.51 242.535C1338.06 237.363 1335.69 229.779 1335.69 220.307H1329.69ZM1436.72 136.816V234.284H1442.72V136.816H1436.72ZM1436.72 234.284C1436.72 241.692 1437.44 247.961 1439.84 252.437C1441.08 254.757 1442.8 256.637 1445.1 257.908C1447.37 259.167 1450.02 259.72 1452.97 259.72V253.72C1450.76 253.72 1449.18 253.307 1448 252.658C1446.85 252.022 1445.9 251.051 1445.13 249.601C1443.48 246.537 1442.72 241.588 1442.72 234.284H1436.72ZM1452.97 259.72C1459.49 259.72 1465.1 257.675 1470.04 255.398L1467.52 249.95C1462.9 252.087 1458.21 253.72 1452.97 253.72V259.72ZM1465.94 253.623L1468.14 260.243L1473.83 258.346L1471.63 251.725L1465.94 253.623ZM1468.58 257.506C1459.57 269.629 1447.22 275.788 1432.74 275.788V281.788C1449.15 281.788 1463.28 274.706 1473.4 261.084L1468.58 257.506ZM1432.74 275.788C1423.88 275.788 1417.04 272.916 1412.06 267.894C1407.03 262.822 1403.64 255.303 1402.23 245.622L1396.3 246.485C1397.83 257.033 1401.62 265.882 1407.8 272.12C1414.04 278.408 1422.47 281.788 1432.74 281.788V275.788ZM1396.96 244.139C1384.61 259.024 1365.52 275.42 1341.15 275.42V281.42C1368.28 281.42 1388.91 263.243 1401.58 247.969L1396.96 244.139ZM1341.15 275.42C1327.07 275.42 1315.83 271.031 1308.12 263.535C1300.42 256.046 1295.97 245.189 1295.97 231.709H1289.97C1289.97 246.55 1294.9 259.049 1303.94 267.836C1312.96 276.615 1325.81 281.42 1341.15 281.42V275.42ZM1295.97 231.709C1295.97 216.945 1301.3 206.709 1309.98 198.802C1318.81 190.758 1331.21 185.034 1345.51 179.719L1343.42 174.095C1329.03 179.445 1315.68 185.491 1305.94 194.366C1296.05 203.378 1289.97 215.21 1289.97 231.709H1295.97ZM1345.5 179.723L1399.57 159.861L1397.5 154.229L1343.43 174.091L1345.5 179.723ZM1401.53 157.045V129.092H1395.53V157.045H1401.53ZM1401.53 129.092C1401.53 117.224 1399.38 106.501 1394.02 98.664C1388.53 90.6403 1379.93 86.0015 1368 86.0015V92.0015C1378.15 92.0015 1384.81 95.8222 1389.07 102.051C1393.45 108.466 1395.53 117.789 1395.53 129.092H1401.53ZM1368 86.0015C1357.49 86.0015 1349.65 89.7153 1344.54 96.2563C1339.52 102.676 1337.42 111.427 1337.42 121H1343.42C1343.42 112.183 1345.37 104.935 1349.26 99.9531C1353.07 95.0921 1359.03 92.0015 1368 92.0015V86.0015ZM1337.42 121C1337.42 127.968 1338.58 134.487 1340.44 142.292L1346.28 140.903C1344.46 133.26 1343.42 127.274 1343.42 121H1337.42ZM1342.95 138.625L1318.68 141.935L1319.49 147.88L1343.77 144.57L1342.95 138.625ZM1319.97 142.04C1315.7 140.728 1312.41 138.485 1310.18 135.486C1307.95 132.49 1306.64 128.544 1306.64 123.575H1300.64C1300.64 129.64 1302.26 134.89 1305.37 139.066C1308.47 143.238 1312.91 146.145 1318.2 147.775L1319.97 142.04ZM1306.64 123.575C1306.64 110.275 1313.47 99.9446 1325.11 92.8001C1336.86 85.5932 1353.46 81.703 1372.42 81.703V75.703C1352.75 75.703 1334.96 79.7206 1321.98 87.6856C1308.89 95.713 1300.64 107.819 1300.64 123.575H1306.64ZM1372.42 81.703C1394.17 81.703 1410.16 86.0676 1420.7 94.8877C1431.12 103.617 1436.72 117.167 1436.72 136.816H1442.72C1442.72 116.007 1436.74 100.5 1424.55 90.2876C1412.46 80.1657 1394.8 75.703 1372.42 75.703V81.703Z" fill="black" mask="url(#path-1-inside-1_1231_173)"/>
</svg>
