<svg width="1975" height="415" viewBox="0 0 1975 415" fill="none" xmlns="http://www.w3.org/2000/svg">
<path d="M232.58 282.475C232.58 349.427 173.119 387.351 108.04 387.351C57.9431 387.351 20.9557 368.155 4.56881 352.236L17.2101 273.579H31.7242C34.0651 336.786 61.6887 370.496 111.317 370.496C152.987 370.496 180.61 346.618 180.61 305.885C180.61 272.175 162.819 257.192 116.936 235.187C74.7982 214.587 49.9838 189.772 49.9838 149.039C49.9838 90.5147 95.3988 49.3135 166.096 49.3135C202.147 49.3135 234.921 60.5502 256.926 78.3416L243.349 147.635H229.771C229.303 95.1967 210.107 66.1685 162.819 66.1685C123.959 66.1685 99.6126 92.8557 99.6126 128.439C99.6126 157.935 115.063 172.449 151.114 189.772C196.529 210.841 232.58 236.592 232.58 282.475ZM309.73 311.035C309.73 346.15 318.158 372.837 342.972 372.837C387.919 372.837 423.97 274.516 423.97 208.968C423.97 173.854 415.542 147.166 390.728 147.166C346.249 147.166 309.73 245.488 309.73 311.035ZM474.535 221.141C474.535 298.394 416.947 387.351 339.226 387.351C290.066 387.351 259.165 355.045 259.165 298.862C259.165 221.61 317.221 132.652 394.942 132.652C444.102 132.652 474.535 164.958 474.535 221.141ZM614.035 147.635C570.025 147.635 536.315 230.973 536.315 295.585C536.315 329.763 549.424 358.323 580.793 358.323C607.481 358.323 624.804 342.872 646.809 315.249L655.237 322.272C634.636 355.982 602.799 387.351 559.725 387.351C511.032 387.351 484.813 351.3 484.813 303.544C484.813 220.205 548.488 132.652 625.74 132.652C660.387 132.652 680.987 147.635 680.987 172.917C680.987 191.177 669.283 201.477 652.427 204.755H644.468C645.405 173.385 639.786 147.635 614.035 147.635ZM788.08 132.652L765.607 215.991L745.474 275.92C788.548 186.963 819.449 132.652 852.223 132.652C869.078 132.652 878.442 144.357 878.442 160.276C878.442 181.813 864.864 195.391 845.668 204.286H841.922C841.922 193.518 839.581 184.154 827.408 184.154C799.317 184.154 750.624 263.747 724.873 382.669H673.84L725.81 175.258L698.186 159.808L699.591 152.785L781.057 132.652H788.08ZM924.998 351.3C959.176 351.3 1007.4 281.539 1035.96 170.108C1030.34 156.062 1018.17 147.166 1002.72 147.166C950.281 147.166 903.929 235.655 903.929 314.312C903.929 336.786 910.484 351.3 924.998 351.3ZM991.482 352.704C991.482 339.127 999.909 302.139 1008.8 277.793C980.713 337.254 941.385 387.351 902.993 387.351C870.687 387.351 852.428 360.664 852.428 317.59C852.428 221.141 924.998 132.652 998.505 132.652C1020.51 132.652 1035.02 139.675 1047.67 152.317L1086.06 129.375H1097.29L1080.44 184.154L1045.79 325.549C1043.92 333.977 1042.05 341.936 1042.05 345.681C1042.05 350.363 1044.39 352.704 1048.6 352.704C1057.03 352.704 1069.2 342.872 1089.8 318.058L1097.76 324.144C1068.27 367.218 1048.6 387.351 1023.32 387.351C1002.72 387.351 991.482 373.773 991.482 352.704ZM1208.91 162.149L1169.59 318.526C1167.25 328.358 1165.84 335.849 1165.84 341.936C1165.84 349.427 1170.05 354.109 1177.55 354.109C1193.93 354.109 1208.45 342.872 1235.13 312.44L1243.09 318.526C1209.85 364.878 1182.7 387.351 1153.2 387.351C1129.32 387.351 1115.28 371.9 1115.28 348.959C1115.28 338.659 1116.21 328.358 1119.96 313.844L1157.88 162.149H1127.45L1130.26 151.38C1166.31 139.675 1192.53 114.393 1216.41 82.0872H1228.58L1213.6 142.484H1266.03L1261.35 162.149H1208.91ZM1351.27 98.4741C1333.01 98.4741 1319.9 84.8964 1319.9 68.5095C1319.9 49.7817 1334.42 34.7994 1353.61 34.7994C1371.87 34.7994 1384.98 48.3771 1384.98 64.764C1384.98 83.0236 1370 98.4741 1351.27 98.4741ZM1265.59 312.908L1300.24 175.258L1272.62 159.808L1274.49 152.785L1355.49 132.652H1362.51L1314.28 325.549C1311.94 333.977 1310.07 341.936 1310.07 345.681C1310.07 350.363 1312.41 352.704 1316.63 352.704C1325.52 352.704 1337.23 342.872 1357.83 318.058L1365.79 324.144C1336.29 367.218 1316.63 387.351 1291.34 387.351C1270.74 387.351 1259.51 373.305 1259.51 352.704C1259.51 341.936 1260.91 330.699 1265.59 312.908ZM1509.55 147.635C1465.54 147.635 1431.83 230.973 1431.83 295.585C1431.83 329.763 1444.94 358.323 1476.31 358.323C1503 358.323 1520.32 342.872 1542.33 315.249L1550.75 322.272C1530.15 355.982 1498.31 387.351 1455.24 387.351C1406.55 387.351 1380.33 351.3 1380.33 303.544C1380.33 220.205 1444 132.652 1521.26 132.652C1555.9 132.652 1576.5 147.635 1576.5 172.917C1576.5 191.177 1564.8 201.477 1547.94 204.755H1539.98C1540.92 173.385 1535.3 147.635 1509.55 147.635ZM1642.42 351.3C1676.59 351.3 1724.82 281.539 1753.38 170.108C1747.76 156.062 1735.59 147.166 1720.14 147.166C1667.7 147.166 1621.35 235.655 1621.35 314.312C1621.35 336.786 1627.9 351.3 1642.42 351.3ZM1708.9 352.704C1708.9 339.127 1717.33 302.139 1726.22 277.793C1698.13 337.254 1658.8 387.351 1620.41 387.351C1588.11 387.351 1569.85 360.664 1569.85 317.59C1569.85 221.141 1642.42 132.652 1715.92 132.652C1737.93 132.652 1752.44 139.675 1765.08 152.317L1803.48 129.375H1814.71L1797.86 184.154L1763.21 325.549C1761.34 333.977 1759.47 341.936 1759.47 345.681C1759.47 350.363 1761.81 352.704 1766.02 352.704C1774.45 352.704 1786.62 342.872 1807.22 318.058L1815.18 324.144C1785.68 367.218 1766.02 387.351 1740.74 387.351C1720.14 387.351 1708.9 373.773 1708.9 352.704Z" fill="black"/>
<path d="M438.673 40.9548C438.673 40.9548 409.966 33.2976 415.593 23.1934C421.22 13.0893 438.673 40.9548 438.673 40.9548Z" fill="#FBF8EF" stroke="#2A2928" stroke-width="5.83277" stroke-linecap="round" stroke-linejoin="round"/>
<path d="M485.778 59.6318C485.778 59.6318 500.069 29.6106 506.831 38.7206C513.593 47.8305 485.778 59.6318 485.778 59.6318Z" fill="#FBF8EF" stroke="#2A2928" stroke-width="5.83277" stroke-linecap="round" stroke-linejoin="round"/>
<path d="M451.927 95.8462C451.927 95.8462 460.027 118.957 457.012 132.001C453.997 145.046 450.464 150.718 450.464 150.718L459.85 154.32" stroke="#2A2928" stroke-width="5.83277" stroke-linecap="round" stroke-linejoin="round"/>
<path d="M412.947 42.8752L409.877 93.0068L435.474 115.648L476.835 107.898L500.217 64.6777L471.421 11.198L412.947 42.8752Z" fill="#FBF8EF" stroke="#2A2928" stroke-width="5.83277" stroke-linecap="round" stroke-linejoin="round"/>
<path d="M422.285 103.982C422.285 103.982 400.867 126.809 382.663 107.714L384.627 132.337" stroke="#2A2928" stroke-width="5.83277" stroke-linecap="round" stroke-linejoin="round"/>
<mask id="path-7-inside-1_1_368" fill="white">
<path d="M459.259 101.864C460.812 102.098 462.234 100.819 462.434 99.0088C462.634 97.1982 461.538 95.541 459.985 95.3074C458.432 95.0737 457.011 96.3521 456.81 98.1627C456.61 99.9732 457.706 101.63 459.259 101.864Z"/>
</mask>
<path d="M459.259 101.864C460.812 102.098 462.234 100.819 462.434 99.0088C462.634 97.1982 461.538 95.541 459.985 95.3074C458.432 95.0737 457.011 96.3521 456.81 98.1627C456.61 99.9732 457.706 101.63 459.259 101.864Z" fill="#2A2928"/>
<path d="M456.666 98.141C456.714 97.7073 456.923 97.1931 457.404 96.7604C457.897 96.3171 458.782 95.8984 459.901 96.0667L458.618 107.661C464.13 108.491 467.74 104.052 468.202 99.8766L456.666 98.141ZM459.901 96.0667C461.02 96.2351 461.785 96.9021 462.165 97.4766C462.536 98.0376 462.626 98.5968 462.578 99.0305L451.042 97.2948C450.58 101.47 453.106 106.832 458.618 107.661L459.901 96.0667ZM462.578 99.0305C462.53 99.4642 462.321 99.9784 461.84 100.411C461.347 100.854 460.462 101.273 459.343 101.105L460.627 89.51C455.115 88.6807 451.505 93.1196 451.042 97.2948L462.578 99.0305ZM459.343 101.105C458.224 100.936 457.46 100.269 457.079 99.6948C456.708 99.1338 456.618 98.5747 456.666 98.141L468.202 99.8766C468.664 95.7015 466.139 90.3393 460.627 89.51L459.343 101.105Z" fill="#2A2928" mask="url(#path-7-inside-1_1_368)"/>
<mask id="path-9-inside-2_1_368" fill="white">
<path d="M470.888 103.612C472.441 103.846 473.862 102.567 474.063 100.757C474.263 98.9463 473.167 97.2891 471.614 97.0554C470.061 96.8217 468.64 98.1001 468.439 99.9107C468.239 101.721 469.335 103.378 470.888 103.612Z"/>
</mask>
<path d="M470.888 103.612C472.441 103.846 473.862 102.567 474.063 100.757C474.263 98.9463 473.167 97.2891 471.614 97.0554C470.061 96.8217 468.64 98.1001 468.439 99.9107C468.239 101.721 469.335 103.378 470.888 103.612Z" fill="#2A2928"/>
<path d="M468.295 99.889C468.343 99.4553 468.552 98.9412 469.033 98.5084C469.526 98.0652 470.411 97.6464 471.53 97.8148L470.246 109.41C475.758 110.239 479.369 105.8 479.831 101.625L468.295 99.889ZM471.53 97.8148C472.649 97.9831 473.414 98.6501 473.794 99.2247C474.165 99.7857 474.255 100.345 474.207 100.779L462.671 99.0429C462.209 103.218 464.734 108.58 470.246 109.41L471.53 97.8148ZM474.207 100.779C474.159 101.212 473.95 101.726 473.469 102.159C472.976 102.602 472.091 103.021 470.972 102.853L472.256 91.258C466.744 90.4287 463.133 94.8677 462.671 99.0429L474.207 100.779ZM470.972 102.853C469.853 102.684 469.088 102.017 468.708 101.443C468.337 100.882 468.247 100.323 468.295 99.889L479.831 101.625C480.293 97.4495 477.768 92.0874 472.256 91.258L470.972 102.853Z" fill="#2A2928" mask="url(#path-9-inside-2_1_368)"/>
<path d="M1969.83 241.305C1969.11 240.033 1968.19 238.936 1967.12 238.079C1966.04 237.221 1964.83 236.619 1963.55 236.307C1962.28 235.995 1960.96 235.98 1959.68 236.261C1958.4 236.542 1957.18 237.115 1956.08 237.946L1935.87 253.37C1931.29 256.866 1925.89 267.174 1928.88 272.529L1932.99 269.393C1933.71 270.666 1934.63 271.762 1935.7 272.62C1936.78 273.477 1937.99 274.079 1939.27 274.391C1940.54 274.703 1941.86 274.719 1943.14 274.438C1944.42 274.156 1945.64 273.583 1946.74 272.752L1966.95 257.328C1968.04 256.497 1968.98 255.423 1969.71 254.168C1970.45 252.912 1970.97 251.5 1971.23 250.013C1971.5 248.525 1971.51 246.99 1971.27 245.496C1971.03 244.002 1970.54 242.578 1969.83 241.305Z" fill="#FBF8EF" stroke="#2A2928" stroke-width="6.13905" stroke-linecap="round" stroke-linejoin="round"/>
<path d="M1812.9 250.825C1811.64 253.517 1811.34 256.685 1812.08 259.632C1812.82 262.579 1814.53 265.064 1816.84 266.54L1838 280.07C1842.81 283.146 1853.15 283.848 1855.79 278.236L1851.49 275.486C1852.11 274.152 1852.51 272.688 1852.65 271.177C1852.79 269.665 1852.68 268.136 1852.31 266.677C1851.94 265.218 1851.34 263.857 1850.52 262.672C1849.7 261.487 1848.69 260.501 1847.55 259.771L1826.39 246.233C1824.08 244.757 1821.36 244.412 1818.83 245.273C1816.3 246.135 1814.17 248.132 1812.9 250.825Z" fill="#FBF8EF" stroke="#2A2928" stroke-width="6.13905" stroke-linecap="round" stroke-linejoin="round"/>
<path d="M1891.18 374.598C1904.48 374.598 1917.23 368.439 1926.63 357.477C1936.04 346.514 1941.32 331.646 1941.32 316.143V174.025C1941.32 141.747 1918.87 86.6689 1891.18 86.6689V115.571C1877.89 115.571 1865.13 121.729 1855.73 132.692C1846.33 143.654 1841.05 158.522 1841.05 174.025V316.143C1841.05 331.646 1846.33 346.514 1855.73 357.477C1865.13 368.439 1877.89 374.598 1891.18 374.598Z" fill="#FBF8EF" stroke="#2A2928" stroke-width="6.13905" stroke-linecap="round" stroke-linejoin="round"/>
<path d="M1893.97 188.815C1893.97 191.695 1895.97 193.953 1898.34 193.953C1900.71 193.953 1902.71 191.695 1902.71 188.815C1902.71 185.935 1900.71 183.677 1898.34 183.677C1895.97 183.677 1893.97 185.935 1893.97 188.815Z" fill="#2A2928" stroke="#2A2928" stroke-width="0.572139"/>
<path d="M1874.79 188.815C1874.79 191.695 1876.79 193.953 1879.16 193.953C1881.53 193.953 1883.52 191.695 1883.52 188.815C1883.52 185.935 1881.53 183.677 1879.16 183.677C1876.79 183.677 1874.79 185.935 1874.79 188.815Z" fill="#2A2928" stroke="#2A2928" stroke-width="0.572139"/>
<path d="M1892.4 199.439H1885.08" stroke="#2A2928" stroke-width="6.13905" stroke-linecap="round" stroke-linejoin="round"/>
<path d="M1914.6 367.845V397.621H1941.32" stroke="#2A2928" stroke-width="6.13905" stroke-linecap="round" stroke-linejoin="round"/>
<path d="M1865.87 367.845V397.621H1839.14" stroke="#2A2928" stroke-width="6.13905" stroke-linecap="round" stroke-linejoin="round"/>
</svg>
