<svg width="1382" height="304" viewBox="0 0 1382 304" fill="none" xmlns="http://www.w3.org/2000/svg">
<path d="M1371.95 213.205H1356.36V229.768H1340.77V246.332H1325.18V262.896H1371.95V213.205Z" fill="#B8C0BE"/>
<path d="M461.386 222.267L448.506 221.051L442.77 208.378L463.4 198.194L482.016 212.083L489.833 200.689L515.681 203.13L521.261 215.788L500.632 225.972L498.618 250.045L485.904 248.845L477.989 260.229L459.373 246.34L461.386 222.267Z" fill="#F4B1CB"/>
<path fill-rule="evenodd" clip-rule="evenodd" d="M960.509 241.473L969.02 205.809L911.438 242.239L945.006 251.281L924.631 264.172L970.566 276.546L982.213 227.742L960.509 241.473ZM960.509 241.473L957.373 254.613L945.006 251.281L960.509 241.473Z" fill="#758F2A"/>
<path d="M957.373 254.613L960.509 241.473L945.006 251.281L957.373 254.613Z" fill="#758F2A"/>
<path d="M216.841 274.049C223.837 273.276 229.068 266.91 227.168 260.148C218.535 229.417 190.307 208.567 159.185 212.004C128.064 215.44 104.474 242.012 101.975 273.972C101.424 281.005 107.775 286.092 114.772 285.32L120.561 284.68C127.558 283.908 132.436 277.456 134.179 270.607C137.613 257.117 148.555 246.605 162.42 245.074C176.286 243.543 189.029 251.439 195 263.891C198.032 270.213 204.054 275.461 211.051 274.688L216.841 274.049Z" fill="#BCD1F1"/>
<path d="M1084.24 199.537C1083.02 195.84 1087.69 193.252 1089.84 196.436L1096.59 206.436C1098.08 208.636 1101.27 208.188 1102.17 205.654L1106.25 194.136C1107.55 190.468 1112.7 191.678 1112.42 195.585L1111.54 207.856C1111.34 210.556 1114.06 212.394 1116.28 211.065L1126.38 205.027C1129.59 203.104 1132.8 207.546 1130.22 210.348L1122.12 219.148C1120.34 221.085 1121.31 224.349 1123.82 224.848L1135.2 227.114C1138.83 227.836 1138.6 233.431 1134.93 233.817L1123.4 235.029C1120.87 235.296 1119.63 238.459 1121.25 240.552L1128.6 250.063C1130.94 253.091 1127.38 257.222 1124.34 255.011L1114.77 248.068C1112.67 246.54 1109.81 248.122 1109.79 250.83L1109.66 263.135C1109.62 267.053 1104.4 267.786 1103.4 264.013L1100.28 252.163C1099.59 249.556 1096.44 248.816 1094.78 250.872L1087.24 260.213C1084.84 263.188 1080.4 260.181 1081.92 256.61L1086.69 245.399C1087.74 242.932 1085.78 240.217 1083.27 240.659L1071.84 242.666C1068.2 243.305 1066.61 237.964 1069.94 236.268L1080.38 230.94C1082.68 229.768 1082.81 226.348 1080.62 224.969L1070.65 218.703C1067.48 216.707 1069.49 211.532 1073.07 212.503L1084.29 215.553C1086.76 216.224 1088.93 213.699 1088.09 211.145L1084.24 199.537Z" fill="#FF6D24"/>
<path d="M331.921 258.141C323.784 260.724 317.203 267.449 315.216 276.383L370.107 288.591C372.094 279.656 368.983 270.776 362.707 264.987C368.316 261.816 372.61 256.371 374.119 249.586L375.784 242.1L329.778 231.868L328.113 239.355C326.604 246.14 328.185 252.892 331.921 258.141Z" fill="#AD7E95"/>
<path d="M605.874 219.063C604.355 216.177 603.772 212.706 604.454 209.168C605.98 201.259 613.252 196.011 620.697 197.448L647.661 202.65C655.105 204.087 659.903 211.663 658.377 219.572C657.056 226.419 651.427 231.272 645.109 231.518C655.177 238.219 658.703 252.488 652.379 264.068C645.056 277.476 628.138 280.765 617.252 270.898L597.922 253.377C592.43 248.399 590.253 240.43 592.346 232.969C594.334 225.881 599.654 220.816 605.874 219.063Z" fill="#CDC19F"/>
<g style="mix-blend-mode:screen">
<rect width="45.9139" height="45.9139" transform="matrix(-0.511386 -0.874811 0.823334 -0.543426 801.647 285)" fill="#E9B34A"/>
</g>
<g style="mix-blend-mode:screen">
<rect width="45.9139" height="45.9139" transform="matrix(-0.511386 -0.874811 0.823334 -0.543426 809.525 249.187)" fill="#E9B34A"/>
</g>
<path d="M99.2275 285.444C67.0053 285.444 39.3362 275.638 23.9256 262.679L21.4739 202.787H33.7324C41.7879 246.568 63.8531 272.836 99.2275 272.836C130.049 272.836 148.612 255.324 148.612 229.756C148.612 202.087 133.201 191.229 89.0705 173.717C50.8942 158.657 23.9256 141.845 23.9256 100.867C23.9256 61.6402 53.6961 32.5701 100.979 32.5701C129.348 32.5701 154.916 40.2754 172.428 52.8841V105.07H160.87C155.266 66.1933 134.602 45.1788 100.979 45.1788C74.7106 45.1788 58.9498 61.6402 58.9498 84.7561C58.9498 110.674 71.5584 120.831 110.085 135.891C157.368 154.804 183.986 172.667 183.986 213.995C183.986 260.227 145.459 285.444 99.2275 285.444ZM287.329 273.886C316.049 273.886 331.109 242.715 331.109 196.133C331.109 147.099 317.099 106.471 285.578 106.471C256.858 106.471 242.148 137.642 242.148 184.225C242.148 232.908 256.157 273.886 287.329 273.886ZM285.578 285.444C234.443 285.444 200.469 249.019 200.469 194.382C200.469 134.49 238.295 94.9131 287.329 94.9131C338.464 94.9131 372.438 131.688 372.438 185.626C372.438 245.867 334.612 285.444 285.578 285.444ZM421.044 178.971C421.044 225.203 442.759 256.374 478.484 256.374C501.25 256.374 517.011 246.217 528.569 228.705L533.822 231.157C522.965 266.531 498.798 285.444 465.175 285.444C418.943 285.444 386.371 250.07 386.371 196.483C386.371 138.343 420.344 94.9131 473.931 94.9131C507.204 94.9131 528.919 108.923 528.919 133.44C528.919 143.597 523.665 152.002 516.66 155.855H493.544C494.245 151.302 494.945 146.399 494.945 140.094C494.945 122.582 488.991 106.821 467.627 106.821C438.557 106.821 421.044 138.343 421.044 178.971ZM600.395 154.454V253.923C600.395 267.932 608.451 270.384 630.866 271.785V281.942H538.052V271.785C555.564 270.734 561.168 268.282 561.168 255.324V130.287L539.103 118.029V113.126L595.842 94.9131H601.796L600.395 145.348C618.608 108.572 627.714 94.9131 648.028 94.9131C654.683 94.9131 659.586 97.3648 662.388 100.517V132.039H656.434C635.069 132.039 619.308 133.44 600.395 154.454ZM733.096 261.628C745.354 261.628 754.46 256.024 766.719 246.217V180.372L729.944 195.432C713.482 201.737 704.026 210.843 704.026 229.756C704.026 248.669 713.482 261.628 733.096 261.628ZM805.946 150.251V243.065C805.946 257.075 808.748 264.43 818.555 264.43C824.158 264.43 829.062 262.679 833.615 260.577L835.716 266.882C826.61 279.14 814.001 285.444 799.291 285.444C781.079 285.444 770.221 273.536 767.419 254.273C755.511 268.633 736.598 285.094 712.081 285.094C684.062 285.094 666.2 267.582 666.2 240.613C666.2 210.843 687.915 198.584 715.233 188.427L766.719 169.514V142.896C766.719 120.831 758.663 104.72 737.649 104.72C719.086 104.72 711.381 117.679 711.381 135.191C711.381 141.495 712.432 147.449 714.183 154.804L691.067 157.956C681.961 155.155 676.357 148.15 676.357 137.642C676.357 109.973 705.076 94.9131 741.852 94.9131C783.881 94.9131 805.946 111.725 805.946 150.251ZM888.904 53.9348V98.4155H936.887V112.775H888.904V228.705C888.904 252.522 897.66 262.328 915.872 262.328C926.38 262.328 933.735 259.176 942.841 252.522L946.694 257.775C936.537 272.836 920.075 285.444 896.959 285.444C870.341 285.444 850.027 271.084 850.027 232.908V112.775H827.261V106.471C848.976 95.6136 867.189 76.3503 880.498 53.9348H888.904ZM1009.32 94.9131V255.324C1009.32 268.282 1014.92 270.734 1032.43 271.785V281.942H946.973V271.785C964.485 270.734 970.089 268.282 970.089 255.324V130.287L948.023 118.029V113.126L1003.71 94.9131H1009.32ZM988.651 70.0459C974.292 70.0459 963.784 58.8382 963.784 45.5291C963.784 31.8696 974.292 20.6619 988.651 20.6619C1003.01 20.6619 1013.87 31.8696 1013.87 45.5291C1013.87 58.8382 1003.01 70.0459 988.651 70.0459ZM1073.51 178.971C1073.51 225.203 1095.22 256.374 1130.95 256.374C1153.71 256.374 1169.47 246.217 1181.03 228.705L1186.28 231.157C1175.43 266.531 1151.26 285.444 1117.64 285.444C1071.4 285.444 1038.83 250.07 1038.83 196.483C1038.83 138.343 1072.81 94.9131 1126.39 94.9131C1159.66 94.9131 1181.38 108.923 1181.38 133.44C1181.38 143.597 1176.13 152.002 1169.12 155.855H1146.01C1146.71 151.302 1147.41 146.399 1147.41 140.094C1147.41 122.582 1141.45 106.821 1120.09 106.821C1091.02 106.821 1073.51 138.343 1073.51 178.971ZM1261.56 261.628C1273.82 261.628 1282.93 256.024 1295.19 246.217V180.372L1258.41 195.432C1241.95 201.737 1232.49 210.843 1232.49 229.756C1232.49 248.669 1241.95 261.628 1261.56 261.628ZM1334.41 150.251V243.065C1334.41 257.075 1337.22 264.43 1347.02 264.43C1352.63 264.43 1357.53 262.679 1362.08 260.577L1364.18 266.882C1355.08 279.14 1342.47 285.444 1327.76 285.444C1309.55 285.444 1298.69 273.536 1295.89 254.273C1283.98 268.633 1265.07 285.094 1240.55 285.094C1212.53 285.094 1194.67 267.582 1194.67 240.613C1194.67 210.843 1216.38 198.584 1243.7 188.427L1295.19 169.514V142.896C1295.19 120.831 1287.13 104.72 1266.12 104.72C1247.55 104.72 1239.85 117.679 1239.85 135.191C1239.85 141.495 1240.9 147.449 1242.65 154.804L1219.53 157.956C1210.43 155.155 1204.82 148.15 1204.82 137.642C1204.82 109.973 1233.54 94.9131 1270.32 94.9131C1312.35 94.9131 1334.41 111.725 1334.41 150.251Z" fill="#131313"/>
</svg>
