<svg width="1750" height="400" viewBox="0 0 1750 400" fill="none" xmlns="http://www.w3.org/2000/svg">
<path d="M446.053 259.773C445.745 242.621 445.193 209.703 444.734 191.165C444.58 184.96 444.905 175.286 443.497 168.447C443.052 166.289 443.099 164.066 442.342 161.974C441.465 159.548 440.739 156.391 439.374 154.223C437.291 150.915 434.152 149.538 430.385 149.028C414.664 146.896 398.519 149.193 382.805 149.193C374.856 149.193 366.718 149.935 358.644 149.935C345.936 149.935 334.466 149.168 322.856 155.13C312.603 160.395 307.257 167.577 302.075 177.394C297.764 185.564 292.688 195.49 292.427 204.854C292.13 215.559 289.802 227.721 291.85 238.416C294.548 252.505 299.323 266.269 303.725 279.811C305.771 286.107 310.832 293.034 315.269 297.788C317.1 299.749 317.458 301.906 319.722 303.56C320.65 304.239 322.832 306.31 323.433 307.271C324.907 309.629 328.275 311.206 330.277 313.208C331.601 314.532 333.906 317.368 335.472 318.238C337.907 319.591 340.811 322.368 342.894 324.341C345.776 327.071 349.714 329.155 353.284 330.855C356.917 332.585 361.961 333.246 365.901 333.246C369.5 333.246 373.104 333.299 376.703 333.246C379.642 333.204 382.302 331.923 385.197 331.762C390.67 331.458 397.004 327.794 402.101 325.825C405.739 324.419 409.503 323.541 412.821 321.372C419.622 316.926 423.556 311.516 428.984 305.787C432.252 302.337 433.301 295.903 434.921 291.521C436.799 286.438 437.058 280.885 438.632 275.771C440.107 270.974 441.5 265.688 442.507 260.763C443.204 257.358 443.527 253.775 444.569 250.455C445.071 248.855 446.053 247.353 446.053 245.672" stroke="black" stroke-width="13" stroke-linecap="round"/>
<path d="M653.114 185.558C649.702 176.019 643.421 158.229 639.508 148.038C639.43 147.833 636.384 137.903 633.818 136.905C632.547 136.411 631.319 135.714 630.107 135.091C627.811 133.91 625.32 133.084 623.098 131.751C620.893 130.429 617.933 129.121 615.594 128.453C609.168 126.617 604.955 124.701 597.865 124.701C593.679 124.701 587.525 123.634 583.682 125.443C577.42 128.39 571.696 131.694 565.87 135.503C560.204 139.208 555.225 143.657 549.955 147.873C545.543 151.403 539.822 156.318 536.596 160.902C532.114 167.27 525.599 172.319 521.382 178.878C519.166 182.325 516.091 185.382 514.703 189.268C513.151 193.613 512.621 198.225 511.363 202.627C509.356 209.652 506.168 218.659 506.168 225.964C506.168 229.901 505.426 233.859 505.426 237.921C505.426 242.237 507.652 246.299 507.652 250.496C507.652 253.22 509.536 257.693 510.456 260.35C511.728 264.026 513.886 268.076 516.558 270.905C519.261 273.767 520.489 278.926 523.98 281.13C525.982 282.395 529.995 285.864 531.236 287.975C537.974 299.428 548.608 309.311 560.716 314.692C566.702 317.352 572.614 319.963 578.569 322.856C586.258 326.591 593.317 326.567 601.906 326.567C620.655 326.567 634.135 310.134 643.466 296.138" stroke="black" stroke-width="13" stroke-linecap="round"/>
<path d="M736.976 338.441C737.504 303.134 738.461 267.793 738.461 232.478C738.461 229.984 738.7 227.375 738.089 224.933C737.393 222.148 737.556 219.089 737.141 216.233C736.241 210.03 734.825 203.862 733.43 197.762C731.188 187.954 731.039 176.32 731.039 166.262C731.039 163.541 731.039 160.819 731.039 158.098C731.039 155.382 729.555 153.36 729.555 150.677C729.555 150.407 730.208 153.645 730.668 154.717C732.101 158.06 733.803 161.13 734.585 164.778C735.525 169.167 738.047 172.794 739.244 176.982C739.79 178.895 740.608 176.41 740.852 175.745C742.015 172.572 743.642 168.829 745.923 166.262C749.396 162.355 754.1 158.328 758.499 155.501C766.1 150.614 776.791 149.016 785.505 146.966C793.334 145.124 802.094 141.771 810.078 141.771C814.116 141.771 826.178 140.574 828.261 144.739" stroke="black" stroke-width="13" stroke-linecap="round"/>
<path d="M883.18 186.3C890.018 173.441 896.435 159.991 904.331 147.709C905.593 145.746 906.044 145.137 908.001 144.781C909.575 144.495 910.904 143.579 912.453 143.297C915.594 142.726 918.595 141.559 921.772 141.029C927.38 140.094 932.395 138.061 938.099 138.061C947.661 138.061 959.056 138.64 966.301 145.482C973.069 151.874 974.298 161.89 978.917 169.396C984.575 178.59 983.947 191.33 987.452 201.144C989.816 207.763 990.177 215.318 992.111 222.089C993.768 227.886 993.76 236.326 993.76 242.333C993.76 254.781 999.204 267.385 1001.88 279.441C1002.82 283.658 1007.24 287.057 1009.18 290.944C1011.75 296.085 1014.81 300.727 1016.77 306.117C1019.69 314.162 1024.58 317.153 1031.61 321.372" stroke="black" stroke-width="13" stroke-linecap="round"/>
<path d="M990.792 223.408C976.708 224.484 962.656 226.032 948.613 227.531C935.619 228.918 921.503 229.63 908.578 232.314C907.386 232.562 905.89 233.567 904.867 234.211C902.907 235.445 901.014 236.868 899.136 238.251C896.384 240.279 892.927 244.185 891.179 247.157C887.266 253.809 881.318 260.331 879.304 267.937C877.812 273.576 877.243 278.798 877.243 284.636C877.243 288.975 876.053 296.252 878.562 300.015C880 302.172 879.93 306.304 882.067 308.014C884.265 309.772 883.62 313.844 885.571 316.012C891.354 322.437 900.187 328.443 909.32 328.794C914.08 328.977 918.694 329.536 923.586 329.536C929.2 329.536 934.762 327.619 940.326 327.31C947.383 326.917 954.885 323.913 961.518 321.702C967.68 319.648 974.477 318.069 980.402 315.435C984.841 313.462 990.746 313.647 994.874 311.353C997.709 309.778 1000.89 308.014 1004.15 308.014" stroke="black" stroke-width="13" stroke-linecap="round"/>
<path d="M1096.92 89.8203C1096.95 105.506 1096.28 121.484 1097.5 137.153C1097.57 138.096 1097.56 139.208 1097.83 140.122C1098.27 141.69 1098.4 142.93 1098.4 144.575C1098.4 147.436 1097.48 151.812 1098.57 154.388C1099.78 157.273 1098.54 160.469 1099.31 163.458C1100.47 167.946 1099.98 172.524 1100.67 177.023C1101.53 182.621 1101.14 188.575 1102.15 194.134C1103.23 200.043 1104.12 206.103 1104.34 212.111C1104.79 224.353 1108.79 236.734 1108.79 249.053C1108.79 252.272 1108.28 255.735 1109.91 258.66C1110.54 259.8 1111.76 262.642 1111.76 263.855C1111.76 267.966 1115.31 272.056 1115.47 276.266C1115.78 284.341 1119.37 292.519 1122.15 300.179C1125.13 308.369 1135.8 312.597 1142.93 315.6C1151.56 319.233 1161.9 317.79 1169.28 312.054C1174.06 308.332 1182.28 304.125 1184.82 298.324C1186.83 293.746 1185.33 287.775 1187.46 283.522" stroke="black" stroke-width="13" stroke-linecap="round"/>
<path d="M1065.01 156.613C1091.2 157.885 1117.44 160.324 1143.68 160.324" stroke="black" stroke-width="13" stroke-linecap="round"/>
<path d="M1254.26 159.582C1254.77 194.939 1254.76 230.36 1255.74 265.71C1255.79 267.503 1256.48 269.128 1256.48 270.946C1256.48 274.465 1257.23 277.746 1257.23 281.295C1257.23 286.758 1257.85 292.714 1256.86 298.076C1256 302.687 1256.36 307.131 1255.7 311.723C1255.16 315.514 1254.26 319.786 1254.26 323.598" stroke="black" stroke-width="13" stroke-linecap="round"/>
<path d="M1253.51 93.5303C1253.61 93.5482 1263.56 95.1186 1259.41 95.7567C1257.68 96.0222 1256.05 96.4989 1254.3 96.4989C1252.05 96.4989 1249.88 96.6926 1247.74 95.9217C1244.17 94.6366 1246.72 91.2401 1248.32 89.8195C1253.85 84.9052 1253.68 95.5885 1253.51 95.4269C1248.52 90.4373 1249.73 79.2171 1247.58 72.75" stroke="black" stroke-width="13" stroke-linecap="round"/>
<path d="M1465.77 181.106C1465.52 179.042 1464.95 156.332 1461.65 155.131C1460.33 154.654 1458.97 154.432 1457.65 154.017C1454.79 153.126 1451.43 152.286 1448.45 152.162C1444.63 152.003 1441.11 150.678 1437.24 150.678C1434.43 150.678 1431.63 150.678 1428.83 150.678C1425.31 150.678 1421.79 150.678 1418.27 150.678C1413.75 150.678 1409.87 152.05 1405.49 153.069C1391.45 156.335 1379.81 162.278 1367.06 168.654C1360.6 171.884 1356.64 174.136 1352.22 180.529C1347.83 186.863 1342.73 193.948 1340.18 201.309C1337.88 207.941 1334.81 213.949 1332.76 220.605C1330.56 227.74 1329.21 234.788 1329.21 242.292C1329.21 251.276 1328.55 261.308 1331.81 269.793C1334.52 276.845 1337.64 283.072 1341.5 289.13C1350.58 303.401 1368.37 311.354 1383.06 318.033C1386.95 319.801 1391.13 321.206 1395.22 322.486C1398.32 323.453 1402.47 323.895 1405.28 325.455C1408.52 327.256 1415.32 325.826 1419.01 325.826C1423.89 325.826 1428.91 326.033 1433.44 323.97C1439.19 321.356 1444.68 317.8 1446.51 311.395C1446.86 310.196 1449.67 306.383 1450.6 305.458C1452.06 303.996 1452.88 301.135 1453.89 299.108" stroke="black" stroke-width="13" stroke-linecap="round"/>
<path d="M1545.92 181.847C1552.99 171.572 1559.72 160.583 1567.77 151.006C1569.67 148.752 1569.23 149.454 1571.16 149.027C1572.5 148.728 1573.64 148.45 1575.03 148.45C1577.63 148.45 1580.06 147.708 1582.66 147.708C1586.38 147.708 1590.3 146.966 1593.79 146.966C1598.56 146.966 1603.33 146.966 1608.1 146.966C1609.35 146.966 1610.65 146.872 1611.89 147.131C1616.7 148.136 1624.76 149.533 1628.67 152.573C1630.18 153.744 1632.7 154.98 1633.66 156.614C1635.33 159.458 1638.68 161.444 1640.59 164.448C1642.81 167.939 1642.95 172.585 1645 176.281C1646.85 179.612 1646.61 184.424 1647.43 188.114C1648.48 192.82 1649.65 198.465 1649.82 203.204C1650.35 217.898 1652.79 232.428 1652.79 247.28C1652.79 256.69 1655.02 265.9 1655.02 275.193C1655.02 280.899 1656.07 286.661 1658.73 291.685C1661.15 296.251 1664.36 301.768 1668.01 305.415C1669.63 307.035 1671.79 309.001 1672.67 311.146C1673.53 313.257 1676.75 315.599 1677.24 317.331C1677.84 319.44 1682.42 320.581 1684.13 321.949C1686.56 323.899 1691.37 323.598 1694.35 323.598" stroke="black" stroke-width="13" stroke-linecap="round"/>
<path d="M1655.02 215.986C1631.9 214.603 1608.71 212.749 1585.54 212.193C1580.14 212.063 1582.32 211.665 1580.06 212.852C1579.2 213.308 1578.25 213.646 1577.42 214.172C1575.3 215.52 1573.05 216.96 1570.83 218.171C1566.92 220.302 1563.86 224.082 1560.02 226.211C1557.6 227.555 1553.29 231.706 1551.86 234.21C1549.59 238.188 1546.66 240.462 1546.66 245.26C1546.66 254.058 1544.35 263.915 1545.96 272.802C1547.41 280.737 1553.89 287.04 1559.28 292.428C1562.24 295.386 1567.61 298.48 1571.61 299.89C1575.83 301.38 1579.97 305.281 1584.51 305.786C1593.84 306.823 1601.87 314.138 1610.86 316.135C1615.12 317.081 1619.2 319.145 1623.68 319.145C1628.08 319.145 1632.48 319.145 1636.88 319.145C1644.76 319.145 1653.56 319.383 1660.96 316.919" stroke="black" stroke-width="13" stroke-linecap="round"/>
<path d="M226.829 128.498C224.614 111.014 224.461 90.4218 219.194 73.3567C219.018 72.7845 217.691 71.7638 217.309 71.283C216.075 69.729 213.3 68.5086 212.408 66.9471C211.08 64.6237 205.107 62.3557 202.699 61.4801C197.76 59.6841 193.456 54.159 187.806 53.8451C182.734 53.5633 178.134 52.1484 172.961 52.1484C166.825 52.1484 161.681 54.2378 155.758 54.6934C145.34 55.4949 135.523 62.5938 125.03 63.1767C114.453 63.7643 105.006 68.8286 96.1867 74.0165C87.9589 78.8564 83.5431 91.4128 79.8799 99.6549C75.923 108.558 71.9592 119.696 74.3187 129.723C77.1733 141.856 80.0611 155.424 88.5517 164.976C93.4933 170.535 98.8081 174.622 105.094 178.974C108.256 181.163 111.818 183.32 115.321 184.912C118.555 186.382 122.19 186.501 125.454 188.258C128.427 189.859 132.428 189.978 135.021 192.311C136.848 193.955 139.789 195.449 141.996 196.553C149.634 200.372 156.803 206.55 164.053 211.21C169.615 214.785 173.844 221.325 179.323 224.548C185 227.887 186.071 237.702 189.88 242.598C191.484 244.661 192.761 247.465 193.933 249.809C195.125 252.193 197.364 253.44 198.646 255.748C202.285 262.297 202.484 270.238 199.259 277.333C198.044 280.005 197.399 282.843 196.101 285.439C194.463 288.715 191.576 291.527 189.503 294.582C186.142 299.534 179.242 307.749 172.961 309.145C159.871 312.054 147.529 312.586 133.937 312.586C129.498 312.586 124.754 313.434 119.94 313.434C118.603 313.434 115.483 315.249 114.85 316.356C114.544 316.892 108.47 317.676 107.639 317.676C97.723 317.676 82.1787 320.813 75.4498 312.161C68.0062 302.591 68.1918 289.584 68.1918 277.804" stroke="black" stroke-width="13" stroke-linecap="round"/>
<path d="M1252.46 100.503C1253.13 99.0142 1260.86 77.4365 1263.44 89.0508C1264.18 92.3682 1262.15 93.6091 1259.67 94.9891C1258.19 95.8123 1253.21 96.0264 1251.61 95.2247C1249.04 93.9405 1249.91 90.1072 1249.91 87.7783C1249.91 86.5131 1249.54 81.8479 1251.19 84.8091C1253.27 88.5552 1248.83 88.0561 1247.79 84.1493C1247.03 81.272 1244.43 73.5322 1248.22 71.8485C1249.78 71.154 1254 71.2494 1255 72.6969C1257.71 76.5972 1260.75 90.6112 1256.28 94.0936C1254.05 95.8269 1251.04 95.4133 1248.41 95.4133C1245.41 95.4133 1243.98 96.0652 1243.98 92.6797C1243.98 90.7594 1244.81 74.4864 1249.54 80.5675C1252.53 84.4116 1251.61 89.8853 1251.61 94.5649" stroke="black" stroke-width="13" stroke-linecap="round"/>
</svg>
