<svg width="109" height="136" viewBox="0 0 109 136" fill="none" xmlns="http://www.w3.org/2000/svg">
<path d="M17.9967 55.2773C14.6653 51.3624 12.6549 46.2885 12.6549 40.7451C12.6549 28.354 22.6998 18.3091 35.0909 18.3091L79.9741 18.3091C92.3652 18.3091 102.41 28.3541 102.41 40.7451C102.41 51.4734 94.8803 60.4429 84.8174 62.6571C103.049 69.8445 113.125 90.369 106.562 109.703C98.962 132.09 72.831 141.989 52.3057 130.257L15.8597 109.426C5.506 103.508 -0.456065 92.1045 0.592342 80.2251C1.58834 68.9394 8.55832 59.7384 17.9967 55.2773Z" fill="#CDC19F"/>
<path d="M41.7764 39.2641C41.7764 40.9331 45.0426 40.6208 45.0147 40.1473C44.9317 38.7358 41.3672 39.2067 42.0708 39.5585" stroke="#131313" stroke-width="5" stroke-linecap="round"/>
<path d="M78.2858 38.0913C78.2227 38.4067 77.2499 39.4863 77.8278 39.7923C78.0439 39.9066 79.3592 40.0017 79.447 39.6941C79.9276 38.0121 77.3138 38.5913 77.4026 38.6801" stroke="#131313" stroke-width="5" stroke-linecap="round"/>
<path d="M57.959 43.3848C57.959 44.9355 58.3489 48.0951 60.4614 48.0951C62.3244 48.0951 63.5525 45.9972 63.5525 44.268" stroke="#131313" stroke-width="5" stroke-linecap="round"/>
<path d="M31.3864 28.2876C30.0488 24.2892 29.6151 19.8804 28.8689 15.5787C28.5299 13.6247 27.3016 4.77663 30.2304 7.20855C32.2541 8.88895 33.6984 9.59034 33.6984 13.7742" stroke="#131313" stroke-width="5" stroke-linecap="round"/>
<path d="M78.5923 22.6026C79.0807 17.0359 82.0788 10.6116 84.1112 6.09935C84.8185 4.52901 85.9292 0.957756 86.4764 4.52944C87.1006 8.60372 87.76 12.5957 87.8808 16.8207C87.9752 20.1209 88.5872 27.7461 87.0185 30.1841" stroke="#131313" stroke-width="5" stroke-linecap="round"/>
</svg>
