<svg width="127" height="84" viewBox="0 0 127 84" fill="none" xmlns="http://www.w3.org/2000/svg">
<path d="M57.1843 0.424805L17.7412 20.2839L17.7412 58.027L74.1526 76.5622L111.223 33.8507L57.1843 0.424805Z" fill="#649AEA"/>
<path d="M61.6196 35.335C62.9132 35.335 64.2175 36.1325 65.4657 36.4205C66.3596 36.6268 67.0194 37.1878 67.8436 37.6095C68.5312 37.9613 69.7892 38.3126 68.4019 38.3126C66.5141 38.3126 64.36 39.3616 62.7362 40.1735" stroke="#FFFFFF" stroke-width="5" stroke-linecap="round"/>
<path d="M92.1401 36.0801C91.674 36.0801 90.5198 35.9823 90.1861 36.3902C89.7556 36.9164 89.8123 37.6988 90.5273 37.7963C91.8665 37.979 92.0197 38.1414 92.5847 37.1243C92.7379 36.8486 91.7562 36.5104 91.5818 36.4523" stroke="#FFFFFF" stroke-width="5" stroke-linecap="round"/>
<path d="M75.7629 46.3148C75.0347 46.4969 77.3278 49.2404 77.6239 49.4682C78.9135 50.4601 80.4427 50.268 81.7905 49.3958C82.7178 48.7958 82.7837 48.197 82.8347 46.9972C82.865 46.2853 83.0737 45.9151 82.8347 45.1982" stroke="#FFFFFF" stroke-width="5" stroke-linecap="round"/>
<path d="M84.51 65.2974C84.8584 65.3409 85.5941 65.8846 85.7714 65.9797C88.0327 67.1934 90.3168 68.3803 92.6674 69.4122C95.1545 70.5042 97.5463 71.7832 100.018 72.8861C100.972 73.3117 101.068 72.7673 101.766 72.0693C102.53 71.3045 103.39 70.7711 104.237 70.136" stroke="#FFFFFF" stroke-width="5" stroke-linecap="round"/>
<path d="M36.8681 64.3672C35.9691 65.202 34.9585 65.9225 34.2627 66.9519C32.6298 69.3678 31.2009 71.8193 29.2587 74.0237C28.0663 75.377 26.8411 76.7009 25.7228 78.1179C25.3165 78.6327 24.7133 79.2768 24.5856 79.9582C24.5319 80.2442 24.3917 80.4852 24.2547 80.7439C24.1276 80.984 22.7286 79.6716 22.3524 79.3999C21.0234 78.4401 19.4465 78.2345 17.886 77.7664" stroke="#FFFFFF" stroke-width="5" stroke-linecap="round"/>
<path d="M101.631 27.7049C101.677 27.3391 102.448 26.8035 102.665 26.609C104.129 25.2995 105.797 24.2123 107.421 23.1145C111.883 20.0982 116.553 16.7561 121.73 15.1329C122.211 14.9821 122.887 14.8691 123.26 14.5332C123.851 14.0018 123.294 13.3077 123.591 12.7136C123.647 12.6011 123.871 12.8615 123.963 12.7756C124.285 12.4747 123.741 11.4497 123.591 11.1421C123.039 10.0097 122.684 10.6781 123.033 11.659C123.324 12.4795 123.36 12.0743 122.66 12.4034C122.46 12.4977 122.789 12.7524 123.033 12.6309" stroke="#FFFFFF" stroke-width="5" stroke-linecap="round"/>
<path d="M21.9371 21.1301C21.7152 21.1024 21.5909 20.8029 21.4512 20.6546C20.2524 19.3808 19.0152 18.1499 17.843 16.8499C14.0333 12.625 9.8423 8.65694 4.65058 6.18015C3.16517 5.47152 2.70507 5.21556 2.76891 3.49205C2.79534 2.77843 4.61121 3.00914 3.55466 4.15374C3.20198 4.53581 2.97119 4.46531 3.36856 4.19509C3.56183 4.06367 4.21707 4.00899 4.0716 4.00899" stroke="#FFFFFF" stroke-width="5" stroke-linecap="round"/>
</svg>
