<svg width="123" height="124" viewBox="0 0 123 124" fill="none" xmlns="http://www.w3.org/2000/svg">
<path d="M23.1145 22.493C18.2875 11.846 32.3761 2.86363 39.9918 11.7328C45.2543 17.8615 55.2242 15.6476 57.3982 7.86749C60.5442 -3.39141 77.1105 -1.2163 77.2435 10.4731C77.3354 18.5507 86.3958 23.2632 93.0621 18.7007C102.709 12.0982 114.002 24.413 106.59 33.4531C101.468 39.6999 105.379 49.1339 113.419 49.9238C125.053 51.067 125.788 67.7593 114.299 69.9201C106.36 71.4132 103.292 81.1544 108.943 86.9271C117.12 95.2811 106.954 108.54 96.7638 102.811C89.7225 98.8516 81.1111 104.342 81.7292 112.396C82.6236 124.052 66.3125 127.674 62.1895 116.735C59.3405 109.176 49.2147 107.847 44.5109 114.414C37.7038 123.918 22.8805 116.208 26.7536 105.178C29.4299 97.5563 22.5277 90.0291 14.7029 92.0364C3.37945 94.9413 -3.01999 79.507 7.03685 73.5471C13.9863 69.4287 13.5372 59.2259 6.25288 55.734C-4.28866 50.6806 0.730112 34.7437 12.265 36.6426C20.2358 37.9548 26.4501 29.8503 23.1145 22.493Z" fill="#649AEA"/>
<path d="M44.9721 53.9696C44.66 54.1099 44.3987 54.1503 44.1876 54.122C44.1656 54.3301 44.071 54.5527 43.8784 54.7902C43.8141 54.8694 43.7311 54.9329 43.6351 54.9814C42.9146 55.3457 41.455 54.8725 41.5656 53.948C41.5873 53.7665 41.609 53.5821 41.6348 53.3974C41.2141 52.6772 41.3042 51.9097 41.9806 52.0158C42.0638 51.8238 42.1656 51.6406 42.2921 51.4701C43.0164 50.4935 43.055 51.0255 43.9357 51.1808C45.0406 51.3756 46.5352 53.2666 44.9721 53.9696Z" fill="#649AEA"/>
<path d="M43.8617 54.0633C45.2611 54.3101 46.283 52.7529 44.5801 52.4526C43.0597 52.1846 43.1447 54.7915 44.9721 53.9696C46.5352 53.2666 45.0406 51.3756 43.9357 51.1808C43.055 51.0255 43.0164 50.4935 42.2921 51.4701C41.7707 52.173 41.6678 53.0935 41.5656 53.948C41.4403 54.9958 43.3318 55.4638 43.8784 54.7902C44.8004 53.6537 43.4745 52.86 42.7162 52.3492C41.1606 51.3015 41.0146 52.8955 42.0116 53.8819C43.4592 55.3142 45.261 55.6102 47.1326 55.2192" stroke="black" stroke-width="2.43974" stroke-linecap="round"/>
<path d="M75.3526 55.4478C74.4717 55.5825 73.5592 56.1221 74.66 56.8636C75.4921 57.424 75.7588 56.2209 75.3526 55.4478Z" fill="#649AEA"/>
<path d="M76.0694 55.4391C75.1823 55.2827 73.2356 55.9041 74.66 56.8636C75.6755 57.5475 75.849 55.6047 74.9847 55.0226C73.785 54.2145 73.2381 56.4042 73.6836 57.1096C74.3252 58.1255 76.4969 59.5836 76.8461 57.6029C77.2268 55.4442 76.4404 55.74 74.9295 54.5142C74.0317 53.7857 71.7448 53.6909 71.5019 55.068C71.2357 56.5778 71.7335 58.5191 73.2205 59.2801C74.1015 59.731 75.7766 60.384 76.0369 58.908" stroke="black" stroke-width="2.43974" stroke-linecap="round"/>
<path d="M59.8076 59.2849C59.3153 62.0768 53.5984 64.9434 53.8181 67.053C53.9174 68.0069 61.1405 70.7932 62.2613 71.8639" stroke="black" stroke-width="3.59527" stroke-linecap="round"/>
<path d="M48.9247 77.1656C48.5786 77.2089 48.9434 79.6294 49.0756 79.9804C49.5688 81.29 50.3352 82.3726 51.3558 83.3236C51.9065 83.8368 52.533 84.2492 53.1579 84.6633C54.0552 85.2581 55.0731 85.9666 56.1393 86.1981C56.861 86.3548 57.6499 86.326 58.3817 86.2988C59.3969 86.261 60.4166 86.1805 61.4135 85.9811C63.0826 85.6473 65.2712 85.1087 66.2851 83.5878C66.9104 82.6498 66.819 81.6122 67.0273 80.5623C67.0985 80.2034 67.2097 79.8541 67.2097 79.4867" stroke="black" stroke-width="3.79937" stroke-linecap="round"/>
</svg>
