<svg width="173" height="114" viewBox="0 0 173 114" fill="none" xmlns="http://www.w3.org/2000/svg">
<path d="M77.5034 0.442383L22.7213 28.0244L22.7213 80.4454L101.07 106.189L152.557 46.8673L77.5034 0.442383Z" fill="#B8C0BE"/>
<path d="M83.663 48.9286C85.4596 48.9286 87.2712 50.0363 89.0047 50.4363C90.2462 50.7228 91.1627 51.502 92.3074 52.0877C93.2624 52.5763 95.0097 53.0641 93.0828 53.0641C90.4608 53.0641 87.4691 54.5212 85.2138 55.6488" stroke="black" stroke-width="3.42652" stroke-linecap="round"/>
<path d="M126.053 49.9635C125.405 49.9635 123.802 49.8277 123.339 50.3942C122.741 51.125 122.82 52.2117 123.813 52.3471C125.673 52.6008 125.885 52.8264 126.67 51.4138C126.883 51.0308 125.52 50.5612 125.277 50.4804" stroke="black" stroke-width="3.42652" stroke-linecap="round"/>
<path d="M103.307 64.1791C102.296 64.4319 105.481 68.2423 105.892 68.5587C107.683 69.9364 109.807 69.6695 111.679 68.4582C112.967 67.6248 113.058 66.7932 113.129 65.1268C113.171 64.1381 113.461 63.6238 113.129 62.6282" stroke="black" stroke-width="3.42652" stroke-linecap="round"/>
<path d="M115.455 90.5428C115.939 90.6033 116.961 91.3585 117.207 91.4906C120.348 93.1762 123.52 94.8247 126.785 96.2579C130.24 97.7745 133.561 99.5509 136.995 101.083C138.32 101.674 138.452 100.918 139.421 99.9483C140.484 98.8861 141.677 98.1453 142.853 97.2631" stroke="black" stroke-width="3.42652" stroke-linecap="round"/>
<path d="M49.286 89.251C48.0373 90.4104 46.6337 91.4112 45.6674 92.8409C43.3993 96.1963 41.4149 99.6012 38.7174 102.663C37.0613 104.542 35.3595 106.381 33.8064 108.349C33.2421 109.064 32.4043 109.959 32.2268 110.905C32.1524 111.302 31.9576 111.637 31.7673 111.996C31.5908 112.33 29.6477 110.507 29.1252 110.13C27.2793 108.797 25.0893 108.511 22.9219 107.861" stroke="black" stroke-width="3.42652" stroke-linecap="round"/>
<path d="M139.234 38.3314C139.298 37.8233 140.368 37.0794 140.67 36.8093C142.703 34.9905 145.02 33.4805 147.276 31.9558C153.473 27.7665 159.959 23.1247 167.149 20.8702C167.817 20.6608 168.756 20.5038 169.274 20.0374C170.095 19.2992 169.321 18.3352 169.734 17.5101C169.812 17.3538 170.123 17.7154 170.251 17.5963C170.699 17.1783 169.942 15.7546 169.734 15.3274C168.968 13.7547 168.474 14.683 168.958 16.0454C169.364 17.185 169.413 16.6221 168.442 17.0793C168.163 17.2103 168.621 17.564 168.958 17.3952" stroke="black" stroke-width="3.42652" stroke-linecap="round"/>
<path d="M28.5487 29.1999C28.2405 29.1614 28.0678 28.7455 27.8738 28.5394C26.2088 26.7703 24.4905 25.0606 22.8623 23.2551C17.5711 17.3873 11.7503 11.8761 4.5396 8.43607C2.47652 7.45185 1.83751 7.09635 1.92616 4.70259C1.96287 3.71146 4.48492 4.03189 3.01749 5.6216C2.52765 6.15226 2.20711 6.05434 2.75902 5.67904C3.02744 5.49651 3.9375 5.42057 3.73546 5.42057" stroke="black" stroke-width="3.42652" stroke-linecap="round"/>
</svg>
