<svg width="171" height="140" viewBox="0 0 171 140" fill="none" xmlns="http://www.w3.org/2000/svg">
<path fill-rule="evenodd" clip-rule="evenodd" d="M112.497 81.1051L132.244 19.2195L32.981 89.3505L85.7722 99.9865L50.6484 124.802L122.889 139.357L149.911 54.6711L112.497 81.1051ZM112.497 81.1051L105.222 103.905L85.7722 99.9865L112.497 81.1051Z" fill="#758F2A"/>
<path d="M105.222 103.905L112.497 81.1051L85.7722 99.9865L105.222 103.905Z" fill="#758F2A"/>
<path d="M78.938 75.9228C79.3294 75.3314 79.8794 74.427 79.2945 74.0451C79.0904 73.9118 78.8405 73.8675 78.5656 74.0571C77.9259 74.4983 77.2338 75.8194 78.0043 76.1028C78.3963 76.2469 78.9267 75.7401 79.2269 75.4153C79.5209 75.0972 79.7494 74.7355 79.9925 74.3796C80.2887 73.9462 80.1568 73.9288 79.8599 73.6697C79.4054 73.273 79.1316 73.179 78.5223 73.6495C78.0086 74.0462 77.7395 74.5613 77.8956 75.0752C78.0397 75.5496 78.2792 75.8993 78.7149 76.0798C79.1379 76.2551 79.6512 75.5572 79.9149 75.1713C80.2007 74.7529 80.5852 74.0241 80.2139 73.7072C80.0267 73.5475 79.8181 73.1174 79.4579 73.4292C78.7014 74.084 78.2783 75.9986 79.5826 75.4787C80.0916 75.2758 80.4302 74.8906 80.6986 74.354C80.9557 73.8398 80.4955 73.5686 80.2029 73.3936" stroke="black" stroke-width="5" stroke-linecap="round"/>
<path d="M96.7265 65.6764C97.3013 65.3696 99.6951 63.411 99.1478 62.7147C98.6287 62.0542 97.7346 61.7146 96.8508 62.6691C95.8982 63.698 95.5027 65.2036 96.2435 66.0124C96.9756 66.8118 97.8128 65.931 98.4838 64.9444C98.9396 64.2742 97.9531 63.2304 97.3519 63.3165C97.2497 63.3311 96.6131 63.5135 96.8531 63.6759C97.1518 63.878 97.6077 63.6952 98.001 63.55C98.5506 63.347 98.1737 63.3839 97.8273 63.5527C97.2258 63.846 96.8345 64.2033 96.3531 64.7103C95.699 65.3992 97.2398 64.4166 97.4852 64.0558" stroke="black" stroke-width="5" stroke-linecap="round"/>
<path d="M88.874 76.1187C89.4632 76.6045 90.0508 77.0233 90.5352 77.6304C90.6342 77.7545 90.9283 78.0839 91.1492 78.0018C91.4279 77.8982 91.9922 77.3479 92.171 77.0834C92.6581 76.3626 92.5114 75.2346 92.5821 74.4714C92.6626 73.6023 93.0282 72.6982 93.2318 71.8404" stroke="black" stroke-width="5" stroke-linecap="round"/>
<path d="M72.9497 57.7231C66.7931 50.9172 61.8789 42.9497 56.3 35.5593C55.1452 34.0295 53.8321 32.7036 52.653 31.2202C51.6358 29.9404 50.2302 28.9043 48.9525 27.9626C47.7992 27.1125 46.3736 26.3112 45.0482 25.7657C43.5551 25.1513 42.1848 24.759 40.5006 25.8863C38.6956 27.0946 36.7152 28.9721 36.0015 31.225C35.9184 31.4876 35.5911 32.1472 35.6668 32.3859C35.7435 32.6278 35.991 32.7489 36.0523 32.9421C36.5121 34.3923 39.2167 32.235 39.9532 31.8905C41.4472 31.1918 43.1978 30.3623 44.2717 28.8169C44.7839 28.0797 45.387 27.4 45.7946 26.5902C46.044 26.0948 46.521 25.7051 46.6868 25.1815" stroke="black" stroke-width="5" stroke-linecap="round"/>
<path d="M78.7007 50.3342C75.26 42.5885 70.6897 35.8104 66.6918 28.5042C65.8643 26.9918 65.2208 25.3694 64.4324 23.8437C63.7522 22.5274 63.3392 20.8807 62.9638 19.3837C62.6249 18.0325 62.3855 16.4208 62.3065 14.9694C62.2176 13.3343 62.2594 11.8739 63.4689 10.4572C64.7651 8.93883 66.5843 7.40243 68.374 7.21911C68.5826 7.19775 69.1346 7.02596 69.2885 7.15763C69.4444 7.29103 69.4729 7.56655 69.5975 7.67311C70.5321 8.47287 68.3403 10.6665 67.9182 11.321C67.0622 12.6485 66.0514 14.2016 64.6855 14.9108C64.0339 15.2491 63.4022 15.6915 62.7232 15.9083C62.3078 16.041 61.9146 16.4256 61.4987 16.4682" stroke="black" stroke-width="5" stroke-linecap="round"/>
</svg>
