<svg width="218" height="214" viewBox="0 0 218 214" fill="none" xmlns="http://www.w3.org/2000/svg">
<path fill-rule="evenodd" clip-rule="evenodd" d="M149.149 128.893L170.855 43.2883L24.0097 130.73L109.614 152.435L57.6538 183.376L174.797 213.077L204.499 95.9342L149.149 128.893ZM149.149 128.893L141.153 160.431L109.614 152.435L149.149 128.893Z" fill="#758F2A"/>
<path d="M141.153 160.431L149.149 128.893L109.614 152.435L141.153 160.431Z" fill="#758F2A"/>
<path d="M103.066 118.129C103.531 117.322 104.164 116.08 103.13 115.414C102.768 115.181 102.358 115.072 101.971 115.305C101.07 115.847 100.322 117.681 101.626 118.234C102.289 118.515 102.999 117.857 103.39 117.429C103.773 117.009 104.04 116.514 104.332 116.03C104.688 115.44 104.473 115.391 103.93 114.957C103.099 114.291 102.637 114.105 101.793 114.695C101.08 115.193 100.79 115.908 101.177 116.695C101.534 117.422 102.009 117.98 102.752 118.323C103.473 118.655 104.104 117.712 104.421 117.187C104.764 116.618 105.181 115.606 104.504 115.073C104.163 114.805 103.715 114.133 103.225 114.531C102.195 115.369 102.035 118.127 103.974 117.584C104.73 117.372 105.167 116.861 105.45 116.114C105.722 115.398 104.916 114.917 104.403 114.608" stroke="#06131C" stroke-width="2.21333" stroke-linecap="round"/>
<path d="M117.215 108.368C118.059 108.011 121.389 105.514 120.318 104.381C119.302 103.307 117.769 102.644 116.602 103.911C115.344 105.276 115.114 107.449 116.527 108.783C117.924 110.102 119.035 108.937 119.85 107.585C120.404 106.667 118.531 104.94 117.585 104.963C117.424 104.966 116.447 105.126 116.878 105.41C117.414 105.764 118.1 105.571 118.695 105.424C119.526 105.218 118.928 105.207 118.416 105.398C117.525 105.729 116.991 106.193 116.352 106.863C115.483 107.775 117.702 106.581 118 106.087" stroke="#06131C" stroke-width="2.21333" stroke-linecap="round"/>
<path d="M113.948 121.938C115.045 122.773 116.12 123.506 117.079 124.504C117.274 124.708 117.846 125.255 118.185 125.171C118.612 125.065 119.386 124.339 119.606 123.973C120.207 122.978 119.659 121.258 119.567 120.125C119.461 118.834 119.813 117.541 119.912 116.289" stroke="#06131C" stroke-width="2.21333" stroke-linecap="round"/>
<path d="M90.2824 92.1708C79.8379 82.1762 71.1215 70.7504 61.4739 60.0301C59.4768 57.8109 57.268 55.8502 55.2407 53.6913C53.4918 51.8287 51.1848 50.2511 49.0876 48.8171C47.1946 47.5226 44.892 46.2618 42.7812 45.3611C40.4034 44.3465 38.2466 43.6487 35.8369 44.9802C33.2544 46.4073 30.5034 48.7236 29.7482 51.7023C29.6601 52.0495 29.2579 52.9074 29.4095 53.2412C29.5632 53.5794 29.9602 53.7737 30.0829 54.0438C31.004 56.0714 34.8217 53.4613 35.8978 53.081C38.0804 52.3097 40.6365 51.3914 42.0491 49.4181C42.723 48.4767 43.5445 47.6245 44.0474 46.572C44.355 45.9281 45.0269 45.4552 45.2024 44.7629" stroke="black" stroke-width="2.21333" stroke-linecap="round"/>
<path d="M101.091 83.838C93.8011 71.3546 84.7171 60.2188 76.5359 48.3415C74.8423 45.8829 73.4494 43.2785 71.8214 40.8045C70.4169 38.6702 69.4194 36.0594 68.5127 33.6861C67.6943 31.5439 67.0039 29.0111 66.6191 26.7487C66.1856 24.2 66.0087 21.9401 67.8644 19.9064C69.8532 17.7268 72.746 15.5903 75.8187 15.5489C76.1769 15.544 77.1049 15.3525 77.3942 15.5776C77.6874 15.8057 77.7839 16.237 78.0181 16.4193C79.7757 17.7869 76.3489 20.8924 75.7287 21.8505C74.4707 23.7937 72.9828 26.066 70.735 26.9807C69.6627 27.4171 68.6427 28.0177 67.502 28.2619C66.8042 28.4112 66.188 28.9546 65.4739 28.9643" stroke="black" stroke-width="2.21333" stroke-linecap="round"/>
</svg>
