<svg xmlns="http://www.w3.org/2000/svg" width="147" height="144" viewBox="0 0 147 144" fill="none">
  <path d="M0.914064 28.4237L0.914063 66.6443L39.1349 66.6443L39.1349 104.865L77.3558 104.865L77.3558 143.085L115.577 143.085L115.577 28.4237L0.914064 28.4237Z" fill="#FCE1D0"/>
  <path d="M81.9108 85.4491C81.1958 86.1641 81.1579 85.4724 81.2128 84.8914C80.738 85.0786 80.2725 85.046 80.2725 84.1921C80.2725 83.5615 81.838 83.4967 82.2497 83.8673C82.8549 84.4119 82.3726 84.9872 81.9108 85.4491Z" fill="#FCE1D0"/>
  <path d="M81.2893 84.3192C81.2547 84.5965 80.8825 86.4773 81.9108 85.4491C82.3726 84.9872 82.8549 84.4119 82.2497 83.8673C81.838 83.4967 80.2725 83.5615 80.2725 84.1921C80.2725 85.4157 81.2285 84.9529 81.7978 84.5734" stroke="black" stroke-width="5.39997" stroke-linecap="round"/>
  <path d="M78.3668 41.8876C79.6027 42.4114 80.7102 40.6314 80.0992 40.5954C78.9845 40.5299 78.8241 41.393 78.3668 41.8876Z" fill="#FCE1D0"/>
  <path d="M78.3196 41.8665C79.5743 42.4569 80.718 40.6318 80.0992 40.5954C78.7727 40.5174 78.7976 41.7546 78.0654 42.1207" stroke="black" stroke-width="5.39997" stroke-linecap="round"/>
  <path d="M90.6092 77.7095C90.6092 70.1378 88.5755 62.7339 88.5755 55.1408C88.5755 51.9444 88.3213 48.787 88.3213 45.5936C88.3213 44.8691 87.9922 44.6987 88.6602 44.6473C90.2367 44.5261 91.8379 44.2314 93.4056 44.153C95.2549 44.0606 96.3581 46.238 96.9929 47.6838C98.8318 51.8724 100.269 56.1954 100.269 60.7759C100.269 64.6711 100.692 68.7872 99.3656 72.5263C98.9098 73.8109 98.3846 75.2187 97.6708 76.3819C97.155 77.2225 95.9592 77.3323 95.4535 78.0908C94.9732 78.8113 92.3331 79.632 91.8803 78.7264" stroke="black" stroke-width="5.39997" stroke-linecap="round"/>
  <path d="M116.831 57.9364C119.471 59.1786 122.923 59.2862 125.732 59.5671C130.564 60.0502 136.008 60.9561 140.884 60.3824C141.864 60.2672 142.576 55.5183 142.673 54.8788C143.05 52.4079 142.535 49.7223 143.33 47.3368" stroke="black" stroke-width="5.39997" stroke-linecap="round"/>
  <path d="M116.017 96.665C117.823 96.8658 119.898 98.2762 121.769 98.6808C126.859 99.7813 132.019 100.627 137.171 101.376C137.632 101.443 139.142 101.817 139.662 101.557C140.714 101.031 140.889 97.2807 141.066 96.28C141.781 92.2489 141.795 88.1028 142.108 84.0271" stroke="black" stroke-width="5.39997" stroke-linecap="round"/>
  <path d="M98.8939 27.3609C103.384 26.862 104.184 17.0868 103.877 14.1794C103.294 8.67675 101.592 4.48205 95.9042 3.39867C94.4068 3.11345 91.5557 3.70462 91.5557 5.75413C91.5557 6.81663 92.2912 7.09554 93.0958 6.56948C94.0901 5.91935 94.0017 5.19842 94.0017 4.12342" stroke="black" stroke-width="5.39997" stroke-linecap="round"/>
  <path d="M118.853 106.719C118.505 106.431 118.045 106.309 117.465 106.474C115.986 106.897 119.093 108.053 118.853 106.719Z" fill="#FCE1D0"/>
  <path d="M101.339 112.159C102.009 112.308 102.519 113.339 102.992 113.813C104.325 115.146 105.802 116.251 107.409 117.233C109.509 118.516 111.87 119.203 114.385 118.591C118.024 117.706 119.759 112.009 119.684 108.807C119.655 107.529 118.957 106.048 117.465 106.474C115.847 106.937 119.722 108.278 118.688 106.271C117.03 103.053 113.587 108.083 117.238 108.083" stroke="black" stroke-width="5.39997" stroke-linecap="round"/>
</svg>