<svg width="97" height="98" viewBox="0 0 97 98" fill="none" xmlns="http://www.w3.org/2000/svg">
<path d="M77.4149 0.276367H51.9343V25.757H26.4537V51.2376H0.973145V76.7182H77.4149V0.276367Z" fill="#B8C0BE"/>
<path d="M39.3975 54.2743C38.9208 53.7977 39.3819 53.7724 39.7692 53.809C39.6444 53.4925 39.6662 53.1821 40.2355 53.1821C40.6559 53.1821 40.6991 54.2258 40.452 54.5003C40.0889 54.9037 39.7054 54.5822 39.3975 54.2743Z" fill="#B8C0BE"/>
<path d="M40.1507 53.86C39.9659 53.8369 38.712 53.5888 39.3975 54.2743C39.7054 54.5822 40.0889 54.9037 40.452 54.5003C40.6991 54.2258 40.6559 53.1821 40.2355 53.1821C39.4197 53.1821 39.7282 53.8195 39.9812 54.199" stroke="#FFFFFF" stroke-width="5" stroke-linecap="round"/>
<path d="M68.4391 51.9114C68.0899 52.7353 69.2766 53.4737 69.3006 53.0663C69.3443 52.3232 68.7688 52.2162 68.4391 51.9114Z" fill="#B8C0BE"/>
<path d="M68.4532 51.8799C68.0596 52.7163 69.2763 53.4788 69.3006 53.0663C69.3526 52.182 68.5277 52.1986 68.2837 51.7104" stroke="#FFFFFF" stroke-width="5" stroke-linecap="round"/>
<path d="M44.5575 60.073C49.6053 60.073 54.5413 58.7171 59.6034 58.7171C61.7344 58.7171 63.8393 58.5477 65.9683 58.5477C66.4512 58.5477 66.5648 58.3283 66.5991 58.7736C66.6799 59.8246 66.8764 60.8921 66.9286 61.9372C66.9903 63.1701 65.5387 63.9056 64.5748 64.3288C61.7823 65.5547 58.9004 66.5132 55.8466 66.5132C53.2498 66.5132 50.5057 66.7951 48.0129 65.9106C47.1566 65.6067 46.218 65.2566 45.4425 64.7807C44.8821 64.4368 44.8089 63.6396 44.3032 63.3025C43.8229 62.9823 43.2758 61.2222 43.8795 60.9204" stroke="#FFFFFF" stroke-width="5" stroke-linecap="round"/>
<path d="M57.7391 77.5547C56.9109 79.3145 56.8392 81.616 56.652 83.4887C56.3299 86.7097 55.726 90.3395 56.1084 93.5901C56.1852 94.2433 59.3512 94.7179 59.7775 94.7829C61.4248 95.0342 63.2152 94.6907 64.8055 95.2208" stroke="#FFFFFF" stroke-width="5" stroke-linecap="round"/>
<path d="M31.9202 77.0112C31.7863 78.2157 30.8461 79.5989 30.5763 80.8464C29.8426 84.2398 29.2791 87.6793 28.7795 91.1139C28.7347 91.4218 28.4853 92.428 28.6587 92.7748C29.0095 93.4764 31.5097 93.5926 32.1768 93.711C34.8643 94.1878 37.6283 94.1965 40.3455 94.4055" stroke="#FFFFFF" stroke-width="5" stroke-linecap="round"/>
<path d="M78.1228 65.5963C78.4554 68.5897 84.9723 69.1233 86.9105 68.9181C90.579 68.5297 93.3755 67.395 94.0978 63.6032C94.2879 62.6049 93.8938 60.7041 92.5275 60.7041C91.8191 60.7041 91.6332 61.1945 91.9839 61.7308C92.4173 62.3937 92.8979 62.3348 93.6146 62.3348" stroke="#FFFFFF" stroke-width="5" stroke-linecap="round"/>
<path d="M25.2183 78.9024C25.4097 78.6708 25.4915 78.364 25.381 77.9772C25.0994 76.9916 24.3288 79.0629 25.2183 78.9024Z" fill="#B8C0BE"/>
<path d="M21.5911 67.2266C21.4919 67.673 20.8043 68.0133 20.4889 68.3288C19.6003 69.2174 18.8635 70.202 18.2089 71.2732C17.3533 72.6732 16.8951 74.2472 17.3029 75.9237C17.8931 78.3498 21.6914 79.5066 23.8258 79.4569C24.6777 79.4371 25.6652 78.9717 25.381 77.9772C25.0728 76.8984 24.1787 79.4819 25.5169 78.7926C27.662 77.6875 24.309 75.3917 24.309 77.8262" stroke="#FFFFFF" stroke-width="5" stroke-linecap="round"/>
</svg>
