<svg xmlns="http://www.w3.org/2000/svg" width="174" height="174" viewBox="0 0 174 174" fill="none">
  <path d="M57.7534 41.5907C55.7522 35.9043 63.3934 31.9232 66.907 36.8216L77.9406 52.2039C80.3686 55.5887 85.5897 54.8995 87.0561 51.0005L93.7202 33.282C95.8424 27.6397 104.255 29.5016 103.798 35.5125L102.363 54.3883C102.047 58.5419 106.489 61.37 110.119 59.3258L126.613 50.0363C131.866 47.078 137.113 53.9118 132.899 58.2226L119.667 71.7598C116.755 74.7386 118.34 79.7607 122.435 80.5278L141.041 84.0139C146.966 85.124 146.593 93.732 140.594 94.3257L121.756 96.1899C117.611 96.6002 115.597 101.466 118.241 104.686L130.253 119.316C134.079 123.975 128.26 130.33 123.283 126.929L107.653 116.248C104.214 113.897 99.5438 116.331 99.4993 120.496L99.2972 139.425C99.2328 145.453 90.6909 146.581 89.0645 140.776L83.9573 122.548C82.8335 118.537 77.6915 117.399 74.98 120.561L62.6577 134.932C58.7337 139.508 51.4654 134.881 53.9508 129.389L61.7554 112.142C63.4728 108.347 60.2653 104.17 56.1555 104.85L37.4788 107.938C31.5313 108.921 28.9375 100.705 34.3717 98.0951L51.4362 89.9001C55.1913 88.0968 55.4191 82.8354 51.8341 80.7142L35.542 71.0745C30.3538 68.0048 33.6483 60.0435 39.4885 61.5374L57.8283 66.2286C61.8639 67.2609 65.4205 63.3769 64.0376 59.4475L57.7534 41.5907Z" fill="#E3CFD5"/>
  <path d="M71.0212 83.2066C70.7651 82.6309 70.8283 82.1601 71.0316 81.8328C69.8518 81.2101 68.9261 80.4892 70.8284 81.1762C71.0612 81.2602 71.2585 81.3529 71.4246 81.4513C73.1751 82.4885 71.449 84.168 71.0212 83.2066Z" fill="#CDB1B9"/>
  <path d="M69.4937 82.1074C69.569 83.8812 71.8948 84.3351 72.4197 82.5561C73.0298 80.4883 70.1414 81.2292 71.0212 83.2066C71.4896 84.2592 73.5143 82.1461 70.8284 81.1762C68.4254 80.3084 70.535 81.6871 71.969 82.2766" stroke="black" stroke-width="3.6" stroke-linecap="round"/>
  <path d="M105.62 84.5763C105.206 86.782 101.504 83.0509 103.883 82.5681C104.027 82.3665 104.238 82.3812 104.465 82.5176C105.024 82.8531 105.678 83.9248 105.651 84.3297C105.645 84.419 105.634 84.5011 105.62 84.5763Z" fill="#CDB1B9"/>
  <path d="M104.779 82.5293C100.613 82.2445 105.448 87.2999 105.651 84.3297C105.692 83.723 104.202 81.619 103.798 82.7385C103.381 83.8934 104.673 84.5115 105.634 84.5772" stroke="black" stroke-width="3.6" stroke-linecap="round"/>
  <path d="M82.7588 84.5065C82.6209 86.5242 84.3923 91.413 87.3448 90.1806C89.3006 89.3643 90.0599 86.8417 90.1849 85.014" stroke="black" stroke-width="3.6" stroke-linecap="round"/>
  <path d="M54.2051 83.0987C51.5173 82.5672 48.7823 82.3527 46.0467 82.2405C40.7985 82.0254 35.9092 83.5289 30.8704 84.9106C25.7328 86.3193 18.5445 87.4262 14.5154 91.5561C11.0639 95.0942 10.3189 100.806 10.3244 105.445C10.3299 110.033 12.6402 114.986 14.8868 118.877C16.1524 121.069 17.9691 122.985 19.712 124.801C20.7043 125.836 22.1862 127.278 23.61 127.66" stroke="black" stroke-width="3.6" stroke-linecap="round"/>
  <path d="M118.964 96.6196C121.378 97.442 123.682 98.5418 125.939 99.7245C130.269 101.993 133.511 105.481 136.929 108.939C140.414 112.465 145.693 116.703 147.019 121.907C148.155 126.365 146.097 131.315 143.934 135.051C141.794 138.747 137.627 141.664 134.006 143.755C131.965 144.933 129.61 145.632 127.359 146.285C126.078 146.657 124.213 147.13 122.887 146.775" stroke="black" stroke-width="3.6" stroke-linecap="round"/>
  <path d="M122.13 146.418C121.257 145.887 118.735 144.196 118.04 145.852C117.891 146.207 117.83 146.635 117.731 147.007C117.45 148.053 118.026 148.459 119.063 148.777C120.199 149.126 120.678 149.253 121.64 148.575C122.126 148.232 123.151 146.839 123.043 146.309" stroke="black" stroke-width="3.6" stroke-linecap="round"/>
  <path d="M25.2247 126.713C24.7516 127.527 23.7206 129.186 24.7076 129.895C25.1449 130.209 25.7419 130.436 26.2796 130.495C26.5998 130.53 27.4777 130.697 27.6057 130.219C27.7984 129.5 28.1697 128.591 27.6665 127.927C27.3522 127.511 26.7491 127.424 26.2758 127.297" stroke="black" stroke-width="3.6" stroke-linecap="round"/>
</svg>