<svg width="273" height="175" viewBox="0 0 273 175" fill="none" xmlns="http://www.w3.org/2000/svg">
<path d="M251.144 149.998C262.95 148.771 271.703 138.117 268.567 126.669C252.031 66.3166 193.816 25.0298 129.531 31.7112C65.2453 38.3925 16.7654 90.7684 12.9936 153.231C12.2781 165.079 23.0358 173.706 34.8419 172.479L55.3782 170.345C67.1843 169.118 75.3946 158.341 77.9739 146.755C84.0281 119.561 106.872 98.0397 136.109 95.0011C165.345 91.9624 192.126 108.326 203.643 133.694C208.55 144.502 218.801 153.36 230.607 152.133L251.144 149.998Z" fill="#BCD1F1"/>
<path d="M104.888 58.2306C104.103 59.3666 103.229 60.7175 104.54 61.668C105.184 62.1348 105.928 61.3904 106.083 60.9917C106.468 60.0058 106.442 59.2576 105.764 58.5187" stroke="black" stroke-width="5" stroke-linecap="round"/>
<path d="M154.815 53.0415C154.772 54.018 154.665 54.5591 155.281 55.4151C155.658 55.9399 156.481 55.7094 156.729 55.1803C157.112 54.3615 157.152 53.1998 155.93 52.9256" stroke="black" stroke-width="5" stroke-linecap="round"/>
<path d="M118.209 65.5179C122.391 67.2751 128.598 65.9351 133.352 65.3349C134.877 65.1424 137.286 64.5777 138.638 64.0515C139.411 63.7507 142.153 62.8928 142.422 62.4799" stroke="black" stroke-width="5" stroke-linecap="round"/>
<path d="M202.924 50.7708C214.039 48.9183 216.976 34.0631 218.584 25.1011C219.915 17.6906 222.057 11.3817 218.181 4.59767C215.808 0.444861 214.568 6.19603 216.001 8.47234C217.361 10.6311 221.615 6.45428 218.181 6.45428" stroke="black" stroke-width="5" stroke-linecap="round"/>
<path d="M62.7097 66.0273C55.0636 66.0273 46.9065 68.2704 39.7442 70.7496C36.5498 71.8554 32.6123 75.0811 29.2907 75.4718C27.0917 75.7306 40.9536 84.9032 42.0448 86.4904C42.5206 87.1825 45.2187 92.5874 46.3635 91.697C49.4615 89.2874 48.2734 83.9088 46.7267 88.5489" stroke="black" stroke-width="5" stroke-linecap="round"/>
</svg>
