<svg xmlns="http://www.w3.org/2000/svg" width="141" height="137" viewBox="0 0 141 137" fill="none">
  <path fill-rule="evenodd" clip-rule="evenodd" d="M96.3245 82.3589L110.235 27.4957L16.1236 83.5361L70.9868 97.4467L37.6858 117.276L112.762 136.312L131.797 61.236L96.3245 82.3589ZM96.3245 82.3589L91.1995 102.572L70.9868 97.4467L96.3245 82.3589Z" fill="#E9EDC9"/>
  <path d="M91.1995 102.572L96.3245 82.3589L70.9868 97.4467L91.1995 102.572Z" fill="#E9EDC9"/>
  <path d="M62.282 76.0847C62.5799 75.5675 62.9861 74.7714 62.3229 74.3443C62.0915 74.1953 61.8286 74.1256 61.5804 74.2748C61.0029 74.6219 60.5233 75.7974 61.3592 76.1515C61.7844 76.3317 62.239 75.9102 62.4897 75.6356C62.7353 75.3668 62.9064 75.0493 63.0935 74.739C63.3215 74.361 63.1837 74.3299 62.8358 74.0513C62.3033 73.6249 62.0074 73.5054 61.4661 73.8836C61.0096 74.2026 60.8234 74.661 61.0713 75.1654C61.3002 75.6311 61.605 75.9892 62.0811 76.2087C62.5433 76.4218 62.9475 75.8173 63.1505 75.4808C63.3705 75.116 63.6377 74.4678 63.2039 74.1262C62.9852 73.954 62.6982 73.5232 62.3839 73.7787C61.7238 74.3153 61.6211 76.0832 62.8639 75.7352C63.3489 75.5994 63.6285 75.2719 63.8103 74.7931C63.9845 74.3343 63.4677 74.0261 63.1387 73.8277" stroke="black" stroke-width="3.6" stroke-linecap="round"/>
  <path d="M79.18 66.3049C79.7209 66.0767 81.8552 64.4763 81.169 63.7502C80.518 63.0614 79.5352 62.6368 78.7874 63.4486C77.9813 64.3236 77.8335 65.7162 78.7392 66.5714C79.6343 67.4166 80.3467 66.67 80.8691 65.8037C81.224 65.2152 80.0237 64.1082 79.4174 64.1228C79.3143 64.1252 78.688 64.2278 78.9642 64.4097C79.3079 64.6362 79.7473 64.5129 80.1286 64.4185C80.6614 64.2866 80.2783 64.2794 79.9496 64.4017C79.3788 64.614 79.0364 64.911 78.6268 65.3409C78.0702 65.9249 79.4922 65.1602 79.6832 64.8434" stroke="black" stroke-width="3.6" stroke-linecap="round"/>
  <path d="M71.4713 75.9723C72.1741 76.507 72.8634 76.977 73.4775 77.6165C73.603 77.7471 73.969 78.0977 74.1863 78.0439C74.4605 77.976 74.9561 77.5108 75.0973 77.2765C75.4821 76.6385 75.1312 75.5362 75.072 74.8099C75.0046 73.9827 75.23 73.1543 75.2936 72.352" stroke="black" stroke-width="3.6" stroke-linecap="round"/>
  <path d="M58.5969 58.8239C51.9031 52.4185 46.3168 45.0958 40.1338 38.2252C38.8538 36.803 37.4382 35.5464 36.139 34.1627C35.0181 32.969 33.5396 31.9579 32.1955 31.0389C30.9823 30.2093 29.5066 29.4013 28.1538 28.824C26.6299 28.1738 25.2476 27.7265 23.7033 28.5799C22.0482 29.4945 20.2851 30.979 19.801 32.888C19.7446 33.1105 19.4868 33.6604 19.584 33.8743C19.6825 34.091 19.9369 34.2156 20.0156 34.3887C20.6059 35.6881 23.0526 34.0153 23.7423 33.7716C25.1411 33.2773 26.7793 32.6887 27.6846 31.4241C28.1165 30.8208 28.643 30.2746 28.9653 29.6C29.1625 29.1874 29.5931 28.8843 29.7056 28.4406" stroke="black" stroke-width="3.6" stroke-linecap="round"/>
  <path d="M65.5241 53.4834C60.852 45.4829 55.0301 38.3461 49.7868 30.7341C48.7015 29.1584 47.8087 27.4892 46.7654 25.9037C45.8653 24.5358 45.226 22.8626 44.6449 21.3416C44.1204 19.9686 43.6779 18.3454 43.4313 16.8954C43.1534 15.262 43.0401 13.8136 44.2294 12.5103C45.504 11.1134 47.358 9.7441 49.3272 9.71755C49.5568 9.71446 50.1515 9.59168 50.337 9.73599C50.5248 9.88218 50.5867 10.1586 50.7368 10.2754C51.8632 11.1519 49.667 13.1422 49.2695 13.7562C48.4633 15.0016 47.5097 16.4579 46.0691 17.0441C45.3819 17.3238 44.7282 17.7087 43.9971 17.8652C43.5499 17.9609 43.155 18.3092 42.6973 18.3154" stroke="black" stroke-width="3.6" stroke-linecap="round"/>
</svg>