<svg width="225" height="225" viewBox="0 0 225 225" fill="none" xmlns="http://www.w3.org/2000/svg">
<path d="M73.944 53.8363C71.3436 46.4472 81.2727 41.2741 85.8384 47.6392L100.176 67.6273C103.331 72.0257 110.115 71.1301 112.021 66.0637L120.68 43.0398C123.438 35.7079 134.369 38.1274 133.775 45.9381L131.91 70.4658C131.5 75.8631 137.273 79.538 141.989 76.8817L163.422 64.8107C170.247 60.9667 177.066 69.8466 171.59 75.4482L154.396 93.0387C150.612 96.9095 152.672 103.435 157.992 104.432L182.17 108.962C189.87 110.405 189.385 121.59 181.59 122.361L157.111 124.784C151.724 125.317 149.108 131.64 152.543 135.824L168.152 154.835C173.123 160.889 165.562 169.146 159.095 164.727L138.785 150.848C134.316 147.793 128.248 150.955 128.19 156.368L127.927 180.965C127.843 188.798 116.744 190.263 114.63 182.72L107.994 159.034C106.534 153.822 99.8521 152.343 96.3287 156.452L80.3168 175.126C75.2179 181.072 65.7732 175.06 69.0028 167.924L79.1443 145.513C81.3759 140.581 77.2081 135.154 71.8677 136.037L47.5986 140.049C39.8703 141.327 36.4999 130.651 43.5611 127.26L65.7353 116.611C70.6147 114.268 70.9108 107.431 66.2522 104.674L45.0819 92.1483C38.3403 88.1595 42.6211 77.8143 50.2101 79.7555L74.0413 85.8514C79.2853 87.1928 83.9068 82.1458 82.1099 77.0398L73.944 53.8363Z" fill="#FF6D24"/>
<path d="M91.1848 107.913C90.852 107.165 90.9341 106.553 91.1983 106.128C89.6652 105.319 88.4623 104.382 90.9343 105.275C91.2367 105.384 91.4931 105.504 91.7089 105.632C93.9836 106.98 91.7407 109.162 91.1848 107.913Z" fill="#CDB1B9"/>
<path d="M89.1999 106.485C89.2977 108.79 92.3199 109.379 93.002 107.068C93.7947 104.381 90.0415 105.344 91.1848 107.913C91.7934 109.281 94.4244 106.535 90.9343 105.275C87.8116 104.147 90.553 105.939 92.4164 106.705" stroke="black" stroke-width="3.39548" stroke-linecap="round"/>
<path d="M136.143 109.693C135.605 112.56 130.795 107.711 133.887 107.084C134.073 106.822 134.347 106.841 134.643 107.018C135.369 107.454 136.219 108.847 136.183 109.373C136.175 109.489 136.162 109.596 136.143 109.693Z" fill="#CDB1B9"/>
<path d="M135.05 107.034C129.637 106.664 135.919 113.233 136.183 109.373C136.237 108.585 134.3 105.851 133.775 107.305C133.233 108.806 134.912 109.609 136.161 109.695" stroke="black" stroke-width="3.39548" stroke-linecap="round"/>
<path d="M106.437 109.602C106.258 112.224 108.56 118.576 112.396 116.975C114.938 115.914 115.924 112.636 116.087 110.261" stroke="black" stroke-width="3.39548" stroke-linecap="round"/>
<path d="M69.3338 107.772C65.8413 107.082 62.2874 106.803 58.7327 106.657C51.913 106.378 45.5597 108.331 39.0121 110.127C32.3362 111.957 22.9955 113.396 17.7601 118.762C13.275 123.36 12.3069 130.782 12.3141 136.809C12.3213 142.771 15.3233 149.207 18.2426 154.264C19.8872 157.112 22.2478 159.601 24.5127 161.962C25.8021 163.306 27.7277 165.18 29.5777 165.676" stroke="black" stroke-width="1.90522" stroke-linecap="round"/>
<path d="M153.483 125.342C156.62 126.411 159.614 127.84 162.547 129.376C168.174 132.325 172.386 136.856 176.828 141.35C181.357 145.932 188.216 151.438 189.939 158.2C191.414 163.993 188.74 170.427 185.93 175.281C183.15 180.083 177.735 183.874 173.029 186.591C170.377 188.122 167.317 189.03 164.392 189.878C162.728 190.361 160.303 190.976 158.582 190.515" stroke="black" stroke-width="1.90522" stroke-linecap="round"/>
<path d="M157.597 190.051C156.463 189.361 153.186 187.163 152.282 189.316C152.089 189.777 152.01 190.333 151.881 190.816C151.516 192.176 152.264 192.704 153.612 193.117C155.088 193.57 155.711 193.735 156.961 192.853C157.592 192.408 158.924 190.598 158.783 189.91" stroke="black" stroke-width="1.90522" stroke-linecap="round"/>
<path d="M31.6757 164.447C31.0609 165.504 29.7212 167.66 31.0037 168.581C31.572 168.99 32.3477 169.285 33.0464 169.361C33.4625 169.407 34.6032 169.623 34.7696 169.002C35.0199 168.068 35.5024 166.887 34.8486 166.024C34.4401 165.484 33.6565 165.37 33.0414 165.205" stroke="black" stroke-width="1.90522" stroke-linecap="round"/>
</svg>
