<svg width="191" height="150" viewBox="0 0 191 150" fill="none" xmlns="http://www.w3.org/2000/svg">
<path d="M71.1361 34.7976C69.9159 29.6857 77.1805 25.4276 79.8385 29.6966L88.1856 43.1024C90.0224 46.0524 94.7802 45.0224 96.4923 41.3041L104.273 24.4068C106.75 19.026 114.115 20.117 113.095 25.7138L109.892 43.2892C109.187 47.1567 112.89 49.4401 116.356 47.2757L132.108 37.4401C137.124 34.308 141.142 40.2377 136.922 44.5435L123.668 58.0648C120.751 61.0402 121.665 65.5685 125.264 65.9708L141.617 67.799C146.824 68.3812 145.617 76.375 140.17 77.375L123.066 80.5155C119.303 81.2065 117.001 85.861 119.048 88.6417L128.351 101.278C131.313 105.302 125.444 111.62 121.32 108.846L108.37 100.136C105.52 98.2197 101.08 100.822 100.617 104.68L98.5164 122.213C97.8474 127.796 90.0633 129.481 89.1917 124.231L86.4545 107.747C85.8522 104.119 81.3507 103.452 78.5954 106.582L66.0741 120.807C62.0868 125.336 56.0299 121.601 58.8184 116.331L67.5749 99.7852C69.5018 96.1442 67.0455 92.5198 63.2864 93.4574L46.2037 97.718C40.7638 99.0748 39.2681 91.6663 44.412 88.8431L60.565 79.9776C64.1195 78.0267 64.8576 73.1407 61.8538 71.447L48.2029 63.7504C43.8558 61.2995 47.6212 53.6846 52.7135 54.6283L68.7048 57.5918C72.2237 58.2439 75.811 54.3825 74.9678 50.8501L71.1361 34.7976Z" fill="#FF6D24"/>
<path d="M76.5387 70.7563C76.3785 70.1695 76.4938 69.6665 76.7179 69.3035C75.7294 68.7448 74.9825 68.0609 76.6155 68.6267C76.8153 68.696 76.9821 68.7772 77.1199 68.8673C78.5726 69.8161 76.8062 71.7363 76.5387 70.7563Z" fill="#FF6D24"/>
<path d="M75.295 69.7232C75.1438 71.5915 77.1881 71.8754 77.882 69.9511C78.6886 67.7144 75.9885 68.7406 76.5387 70.7563C76.8315 71.8293 78.9212 69.4257 76.6155 68.6267C74.5526 67.9119 76.2874 69.1914 77.5096 69.6936" stroke="#FFFFFF" stroke-width="5" stroke-linecap="round"/>
<path d="M111.018 72.0102C110.383 74.3548 107.552 70.7561 109.721 70.052C109.873 69.8289 110.058 69.8266 110.243 69.9506C110.698 70.2553 111.149 71.3231 111.075 71.7494C111.059 71.8435 111.04 71.9303 111.018 72.0102Z" fill="#FF6D24"/>
<path d="M110.52 69.9366C106.859 69.9859 110.534 74.877 111.075 71.7494C111.185 71.1105 110.119 69.0314 109.624 70.2376C109.114 71.4819 110.185 72.0215 111.03 72.0101" stroke="#FFFFFF" stroke-width="5" stroke-linecap="round"/>
<path d="M89.0608 72.0991C88.6806 74.2674 89.6925 79.3416 92.558 77.7731C94.456 76.7341 95.4702 73.9733 95.8146 72.0093" stroke="#FFFFFF" stroke-width="5" stroke-linecap="round"/>
<path d="M59.8344 67.868C57.4232 67.5443 54.9357 67.5521 52.4371 67.6656C47.6435 67.8835 43.0011 69.8468 38.2342 71.6967C33.3739 73.5829 26.663 75.3292 22.5378 79.9337C19.0039 83.8781 17.7283 89.8418 17.2527 94.6329C16.7822 99.3722 18.3889 104.295 20.0471 108.127C20.9813 110.286 22.4498 112.112 23.8609 113.843C24.6643 114.828 25.8746 116.194 27.1415 116.468" stroke="#FFFFFF" stroke-width="5" stroke-linecap="round"/>
<path d="M128.33 84.1227C130.46 84.7698 132.46 85.7128 134.409 86.7453C138.147 88.7261 140.76 92.0567 143.539 95.3429C146.372 98.6935 150.777 102.628 151.454 107.893C152.034 112.403 149.632 117.69 147.26 121.731C144.914 125.728 140.788 129.092 137.248 131.556C135.254 132.944 133.02 133.863 130.887 134.726C129.673 135.218 127.912 135.863 126.733 135.607" stroke="#FFFFFF" stroke-width="5" stroke-linecap="round"/>
<path d="M127.771 133.699C126.992 133.206 124.756 131.614 123.91 133.449C123.729 133.842 123.624 134.305 123.488 134.712C123.106 135.858 123.614 136.243 124.574 136.493C125.626 136.767 126.072 136.862 127.068 136.052C127.571 135.643 128.705 134.061 128.658 133.503" stroke="#FFFFFF" stroke-width="5" stroke-linecap="round"/>
<path d="M31.1233 114.191C30.5911 115.088 29.4437 116.921 30.2978 117.583C30.6762 117.876 31.2144 118.064 31.7145 118.08C32.0124 118.089 32.8214 118.189 32.9928 117.676C33.2508 116.903 33.6971 115.916 33.2939 115.259C33.042 114.849 32.4834 114.809 32.0511 114.716" stroke="#FFFFFF" stroke-width="5" stroke-linecap="round"/>
</svg>
