<svg width="129" height="123" viewBox="0 0 129 123" fill="none" xmlns="http://www.w3.org/2000/svg">
<path d="M30.6665 37.348L9.61487 35.4774L0.240723 15.982L33.9572 0.31543L64.3831 21.6816L77.1591 4.15437L119.406 7.9081L128.525 27.381L94.8086 43.0475L91.518 80.0799L70.7385 78.2335L57.8016 95.7464L27.3759 74.3806L30.6665 37.348Z" fill="#F4B1CB"/>
<path d="M48.5411 39.147C48.5411 39.4101 48.3313 41.1608 48.6891 41.263C49.2294 41.4174 50.2453 41.3621 50.7904 41.263C51.4543 41.1423 51.471 40.4655 51.471 39.946C51.471 39.3035 50.95 39.3284 50.4056 39.147" stroke="#131313" stroke-width="5" stroke-linecap="round"/>
<path d="M78.6088 38.1025C78.6088 38.6949 78.7772 39.5067 78.3425 39.967C77.8474 40.4913 77.0301 41.7613 76.3596 40.8993C75.6613 40.0014 76.4014 38.1025 77.5434 38.1025" stroke="#131313" stroke-width="5" stroke-linecap="round"/>
<path d="M57.1819 46.4372C57.1819 48.9694 59.2249 52.0307 61.9763 52.0307C64.3424 52.0307 66.0872 52.2484 67.5697 50.107C68.2161 49.1733 68.8574 46.0598 69.7006 45.6382" stroke="#131313" stroke-width="5" stroke-linecap="round"/>
<path d="M75.3027 79.5898C75.4626 81.3487 76.8897 82.8126 77.9464 84.1079C79.394 85.8823 80.8888 87.5479 82.2267 89.4093C84.2916 92.2822 86.9021 94.6516 88.759 97.6901C90.1377 99.9462 88.3184 100.559 87.0105 102.642C85.5509 104.966 83.9061 107.033 82.2407 109.174C81.1127 110.624 80.7462 112.673 79.5271 114.028C78.9398 114.68 78.1956 115.441 78.7717 115.902C79.5135 116.496 81.4075 118.347 82.2407 118.764" stroke="#131313" stroke-width="5" stroke-linecap="round"/>
<path d="M38.0395 82.1074C36.5889 83.9724 35.5739 86.1835 34.2627 88.1502C33.1278 89.8525 31.6973 91.3874 30.7378 93.1998C29.5402 95.462 28.5991 97.8423 26.7653 99.6761C25.7123 100.729 26.1302 100.95 26.9471 102.124C28.58 104.471 30.5427 106.634 31.8708 109.188C32.4988 110.396 33.0038 110.955 33.0038 112.321C33.0038 113.397 32.7685 114.835 33.1297 115.846C33.2932 116.304 34.0072 117.479 33.4515 117.664C31.6183 118.275 30.0906 118.795 28.4718 119.875" stroke="#131313" stroke-width="5" stroke-linecap="round"/>
<path d="M95.2124 52.0366C95.3452 52.7005 96.2974 53.2824 96.7511 53.6592C98.9632 55.497 101.262 57.2519 103.605 58.9186C104.872 59.8198 107.833 62.7344 109.466 61.2826C111.918 59.1032 112.816 55.6525 116.11 54.5544" stroke="#131313" stroke-width="5" stroke-linecap="round"/>
<path d="M29.2525 46.5474C24.1666 50.1567 19.6641 54.9938 14.1597 57.9754C12.4689 58.8912 10.6132 59.2884 8.70441 59.1224C7.38048 59.0073 5.83691 58.0351 5.83691 56.6186C5.83691 55.6489 6.34048 54.7898 6.34048 53.849" stroke="#131313" stroke-width="5" stroke-linecap="round"/>
</svg>
